<?xml version="1.0" standalone="no"?>
<!DOCTYPE svg PUBLIC "-//W3C//DTD SVG 1.1//EN" "http://www.w3.org/Graphics/SVG/1.1/DTD/svg11.dtd" >
<svg xmlns="http://www.w3.org/2000/svg">
<metadata></metadata>
<defs>
<font id="andadabold_italic" horiz-adv-x="1132" >
<font-face units-per-em="2048" ascent="1638" descent="-410" />
<missing-glyph horiz-adv-x="458" />
<glyph unicode="&#xa8;I" horiz-adv-x="811" d="M35 -10l10 143l133 25q1 3 20 77.5t23 98.5l105 715q6 45 9.5 91.5t5 89.5t1.5 46l-125 24l33 154q98 -10 194 -10q102 0 201 2.5t147 5.5l48 2l-15 -166l-131 -12q-34 -106 -43 -166l-102 -715q-7 -45 -11 -95t-6 -96l-2 -46l125 -13l-32 -155q-163 10 -392 10 q-43 0 -92 -2.5t-77 -5.5zM270 1667q0 72 42 120t112 48q54 0 82.5 -30.5t28.5 -86.5q0 -74 -40 -121t-112 -47q-54 0 -83.5 31.5t-29.5 85.5zM618 1667q0 73 40.5 120.5t111.5 47.5q54 0 82.5 -30.5t28.5 -86.5q0 -74 -40 -121t-112 -47q-54 0 -82.5 31.5t-28.5 85.5z" />
<glyph unicode="&#xa8;O" horiz-adv-x="1529" d="M72 598q0 194 61.5 359t170.5 280.5t263 180.5t334 65q286 0 453.5 -173t167.5 -466q0 -193 -62 -357.5t-171 -280t-263 -180.5t-334 -65q-286 0 -453 173t-167 464zM434 555q0 -395 281 -395q116 0 201.5 52t138 149.5t77.5 228.5t25 297q0 200 -68.5 298.5t-209.5 98.5 q-116 0 -202.5 -52.5t-139 -150t-78 -229t-25.5 -297.5zM520 1667q0 73 42.5 120.5t115.5 47.5q55 0 85 -30.5t30 -86.5q0 -74 -41.5 -121t-114.5 -47q-57 0 -87 31.5t-30 85.5zM993 1667q0 73 41.5 120.5t114.5 47.5q55 0 85 -30.5t30 -86.5q0 -74 -41.5 -121t-114.5 -47 q-57 0 -86 31.5t-29 85.5z" />
<glyph unicode="&#xb4;Y" horiz-adv-x="1363" d="M104 1311l31 143q104 -10 178 -10q106 0 212 2.5t159 5.5l53 2l-12 -149l-104 -19q4 -67 14 -106l147 -424l285 452q4 7 8 26.5t6 35.5l2 16l-79 25l30 143q125 -10 219 -10q76 0 150 2.5t109 5.5l36 2l-12 -149l-119 -15q-108 -110 -149 -176l-398 -614l-14 -105 q-6 -45 -9.5 -96t-5 -94t-1.5 -47l125 -13l-33 -155q-162 10 -391 10q-43 0 -92 -2.5t-77 -5.5l-28 -2l10 143l133 25q1 3 20 77.5t23 98.5l27 186l-260 662q-8 22 -27.5 49.5t-35.5 44.5l-15 16zM641 1626l471 213l72 -172q-285 -82 -324 -94l-145 -78z" />
<glyph unicode="&#xa8;i" horiz-adv-x="624" d="M70 0q120 450 145 842l-141 8v106l389 88l80 -57q-42 -166 -83 -391t-63 -426l160 -12l-8 -109l-410 -86zM133 1317q0 72 42 120t112 48q54 0 82 -30.5t28 -86.5q0 -74 -40 -121t-111 -47q-54 0 -83.5 31.5t-29.5 85.5zM481 1317q0 73 40.5 120.5t111.5 47.5 q54 0 82 -30.5t28 -86.5q0 -74 -40 -121t-111 -47q-54 0 -82.5 31.5t-28.5 85.5z" />
<glyph unicode="&#xa8;o" horiz-adv-x="995" d="M31 342q0 143 47.5 273.5t127 224t189.5 149t230 55.5q165 0 250.5 -96t85.5 -282q0 -191 -79.5 -353t-216.5 -256t-298 -94q-163 0 -249.5 97t-86.5 282zM248 1317q0 73 43.5 120.5t116.5 47.5q55 0 84.5 -30.5t29.5 -86.5q0 -74 -41.5 -121t-115.5 -47 q-56 0 -86.5 31.5t-30.5 85.5zM330 350q0 -93 28 -144.5t76 -51.5q109 0 168.5 131t59.5 372q0 92 -28 144.5t-75 52.5q-110 0 -169.5 -131t-59.5 -373zM721 1317q0 73 42 120.5t116 47.5q55 0 84.5 -30.5t29.5 -86.5q0 -74 -41.5 -121t-115.5 -47q-56 0 -85.5 31.5 t-29.5 85.5z" />
<glyph unicode="&#xb4;y" horiz-adv-x="1103" d="M-10 -426l88 244q170 -78 317 -78q69 0 131 14t86 37q35 31 35 199q-1 18 45 191t53 255q-31 -72 -67.5 -136t-85.5 -127t-102.5 -108.5t-120 -73.5t-136.5 -28q-77 0 -120 47t-43 121q0 92 54 337t62 374l-141 8v106l391 88l82 -57q-151 -520 -151 -670q0 -90 43 -90 q51 0 107 57t105 148.5t90 197t70 212.5l-141 8v106l358 88l80 -57q-78 -285 -166 -956q-15 -119 -62 -211.5t-108.5 -148t-141 -91t-152 -48.5t-148.5 -13q-106 0 -188 16t-123 39zM459 1276l411 270l95 -155q-244 -116 -279 -134l-133 -100z" />
<glyph unicode="&#xfb01;" horiz-adv-x="1300" d="M-348 -475l90 225q74 -12 117 -12q138 0 200 51q18 15 38 86t32 131q81 414 135 844h-180l14 133q16 6 46.5 16.5t48.5 17t38.5 15.5t32.5 17q25 17 43 71l2 6q47 204 219 327.5t406 123.5q70 0 123 -7.5t100 -27t71.5 -57t24.5 -92.5q0 -71 -51.5 -132t-118.5 -61 q-65 0 -99 33.5t-34 97.5v19q-50 10 -96 10q-69 0 -132.5 -17.5t-80.5 -42.5q-30 -42 -80 -288h221q97 0 359 32l80 -57q-104 -415 -148 -817l162 -12l-8 -109l-410 -86l-69 37q120 450 145 842q-132 8 -193 8h-168q-64 -385 -98 -711q-16 -144 -67.5 -256.5t-119 -179.5 t-154 -110t-166 -58.5t-163.5 -15.5q-60 0 -112 6z" />
<glyph unicode="&#xfb02;" horiz-adv-x="1267" d="M-362 -475l90 229q78 -12 118 -12q140 0 199 49q20 17 39 62.5t37 127t31 148.5t30 188t25 181t24 191t19 159h-180l14 135q12 4 38.5 13t40 14t32.5 12t32.5 13.5t22.5 13.5q9 6 16.5 15.5t12.5 19.5t8.5 19.5t5.5 16.5l2 6q47 203 220 327t407 124h249l70 -57 q-164 -900 -213 -1350l156 -12l-8 -109l-410 -86l-70 37q79 277 136.5 676.5t78.5 671.5q-62 8 -69 8q-70 0 -132 -17t-79 -41q-32 -48 -78 -286h219l-43 -164h-207q-27 -165 -56.5 -395t-51 -355.5t-52.5 -195.5q-45 -109 -118.5 -187.5t-159 -119t-167 -58.5t-165.5 -18 q-62 0 -114 6z" />
<glyph horiz-adv-x="0" />
<glyph horiz-adv-x="682" />
<glyph unicode=" "  horiz-adv-x="458" />
<glyph unicode="&#x09;" horiz-adv-x="458" />
<glyph unicode="&#xa0;" horiz-adv-x="458" />
<glyph unicode="!" horiz-adv-x="489" d="M35 109q0 82 47.5 144t118.5 62q56 0 87 -37.5t31 -99.5q0 -83 -47 -146t-118 -63q-56 0 -87.5 39t-31.5 101zM119 471q12 74 20 135l109 852l229 19l47 -58q-112 -447 -159 -768l-17 -157l-37 -33q-10 2 -76 6t-116 4z" />
<glyph unicode="&#x22;" horiz-adv-x="735" d="M150 1059l30 190l6 299h228l-97 -499zM477 1059l31 190l6 299h227l-96 -499z" />
<glyph unicode="#" horiz-adv-x="1167" d="M59 287l27 176l229 2l60 207l-219 -2l26 186h248l92 315l150 -20l-86 -295h172l92 315l149 -20l-86 -295h211l-26 -176l-238 -2l-59 -207l229 2l-29 -186h-253l-93 -318l-151 21l86 297h-170l-92 -318l-152 21l86 297h-203zM471 467l172 2l62 207l-173 -2z" />
<glyph unicode="$" horiz-adv-x="1036" d="M10 113l144 360l129 -35l-39 -225q120 -76 227 -76q78 0 128 43.5t50 118.5q0 47 -26.5 92.5t-69 85.5t-94 81t-102.5 85t-93.5 91t-69 107t-26.5 124q0 98 36.5 174t102 123.5t150 72.5t186.5 29l37 192l129 -6l-35 -188q55 -4 120.5 -13.5t103.5 -16.5l38 -7l39 -59 l-96 -338l-121 6l6 223q-115 47 -223 47q-63 0 -104 -35.5t-41 -95.5q0 -45 27.5 -92t72 -90t97.5 -87.5t106.5 -90.5t98 -93t72 -102t27.5 -110q0 -189 -134.5 -310t-348.5 -133l-29 -153l-131 6l29 151q-111 13 -211.5 54t-161.5 90z" />
<glyph unicode="%" horiz-adv-x="1783" d="M109 981q0 73 14.5 141t46.5 129.5t79 107t116.5 72.5t154.5 27q77 0 135 -25.5t92 -70.5t51 -102.5t17 -126.5q0 -92 -24.5 -175.5t-72.5 -153t-129.5 -110.5t-185.5 -41q-77 0 -135 26t-92 72t-50.5 103.5t-16.5 126.5zM256 -8l1061 1483l125 -93l-1057 -1482zM330 967 q0 -176 92 -176q37 0 71 38t55.5 94t34.5 116.5t13 107.5q0 76 -22.5 126t-73.5 50q-48 0 -88.5 -64.5t-61 -145.5t-20.5 -146zM989 319q0 76 15 146t48 134t82 111t121.5 75t161.5 28q81 0 142 -26.5t96.5 -74t53 -107t17.5 -130.5q0 -95 -25.5 -181t-75.5 -156.5 t-135 -112t-194 -41.5q-81 0 -141.5 26.5t-96 73.5t-52.5 105.5t-17 129.5zM1217 307q0 -50 8 -88t31.5 -66t60.5 -28q52 0 95 66t64 148.5t21 149.5q0 183 -100 183q-51 0 -94 -66t-64.5 -148.5t-21.5 -150.5z" />
<glyph unicode="&#x26;" horiz-adv-x="1241" d="M25 276q0 156 74 334.5t183.5 299t206.5 120.5q167 0 254.5 -41.5t87.5 -120.5q0 -92 -43 -168q113 57 193 105q4 62 4 90q0 195 -67 365l270 102q35 -129 35 -305q0 -30 -4 -92q118 87 208 174l127 -164l-26 -78q-163 -62 -344 -147q-44 -165 -130.5 -310t-200 -250.5 t-254.5 -166t-288 -60.5q-135 0 -210.5 82t-75.5 231zM295 309q0 -72 34 -110.5t97 -38.5q164 0 308.5 135.5t209.5 343.5q-190 -87 -339 -145t-306 -95q-4 -31 -4 -90zM317 530q114 34 188.5 105.5t74.5 152.5q0 60 -109 60q-40 0 -83.5 -93t-70.5 -225z" />
<glyph unicode="'" horiz-adv-x="407" d="M150 1059l30 190l6 299h228l-97 -499z" />
<glyph unicode="(" horiz-adv-x="602" d="M45 444q0 324 137.5 616.5t409.5 514.5l98 -90q-194 -208 -291.5 -496.5t-97.5 -601.5q0 -181 38 -328.5t107 -244.5l-122 -90q-279 296 -279 720z" />
<glyph unicode=")" horiz-adv-x="600" d="M-70 -186q191 211 289 496.5t98 592.5q0 374 -145 582l123 90q278 -298 278 -727q0 -321 -137.5 -612t-408.5 -512z" />
<glyph unicode="*" horiz-adv-x="817" d="M123 1049l168 116l-51 49l-78 56l74 137l161 -84l21 80l16 108l141 17l-12 -203q41 16 76 33l94 53l64 -121l-170 -119l55 -49l76 -53l-74 -137l-162 84q-20 -78 -20 -82l-17 -107l-141 -16l10 201q-61 -24 -71 -31l-97 -53z" />
<glyph unicode="+" horiz-adv-x="1189" d="M51 416l31 215h420l61 416h205l-57 -416h426l-29 -205l-426 -4l-57 -422h-215l61 420z" />
<glyph unicode="," horiz-adv-x="452" d="M-41 -213q156 55 193 193q-54 3 -80.5 38.5t-26.5 90.5q0 93 46 149.5t122 56.5q119 0 119 -145q0 -53 -14 -109t-44 -111.5t-72 -102t-102 -80.5t-129 -46z" />
<glyph unicode="-" horiz-adv-x="518" d="M35 422l22 194h455l-37 -194h-440z" />
<glyph unicode="." horiz-adv-x="446" d="M31 109q0 82 47.5 144t118.5 62q56 0 87 -37.5t31 -99.5q0 -83 -47 -146t-118 -63q-56 0 -87.5 39t-31.5 101z" />
<glyph unicode="/" horiz-adv-x="770" d="M-80 -72l866 1655l181 -61l-867 -1655z" />
<glyph unicode="0" horiz-adv-x="1134" d="M57 539q0 237 80.5 423.5t225 290t327.5 103.5q212 0 323 -143.5t111 -417.5q0 -237 -79.5 -422.5t-223.5 -289t-327 -103.5q-214 0 -325.5 142.5t-111.5 416.5zM385 469q0 -168 32.5 -241.5t102.5 -73.5q82 0 145 91t97.5 251.5t34.5 365.5q0 168 -34 244t-104 76 q-81 0 -143.5 -91.5t-96.5 -253.5t-34 -368z" />
<glyph unicode="1" horiz-adv-x="851" d="M92 -10l10 143l181 25q37 135 43 176l96 657l-215 -80l-55 127q268 189 313 222q11 8 40 37t52 54l23 25l208 -24q-72 -378 -86 -480l-69 -477q-7 -46 -11.5 -107t-4 -91.5t0.5 -38.5l152 -13l-35 -155q-154 10 -385 10q-43 0 -107.5 -2.5t-107.5 -5.5z" />
<glyph unicode="2" horiz-adv-x="1091" d="M-10 0l2 203q227 189 355 303.5t209 208.5t106.5 156.5t25.5 136.5q0 71 -40 109t-111 38q-88 0 -179 -49q-22 -47 -26 -78l-15 -88l-161 -10l39 354q207 72 413 72q201 0 308.5 -79.5t107.5 -223.5q0 -159 -139 -334.5t-494 -456.5h205q73 0 178 20l4 1q0 2 19 42t20 44 l25 73l157 -12l-73 -395l-68 -41q-176 6 -213 6h-655z" />
<glyph unicode="3" horiz-adv-x="978" d="M-45 -59q264 30 428 149.5t164 290.5q0 172 -170 172l-123 -8l-6 149q177 31 271.5 121.5t94.5 226.5q0 64 -34 99t-97 35q-72 0 -149 -25l-21 -64l-18 -124l-166 -11l23 344q183 60 368 60q199 0 301.5 -77t102.5 -226q0 -121 -70.5 -215.5t-200.5 -157.5 q102 -23 167 -106t65 -185q0 -148 -121 -280t-329.5 -218.5t-457.5 -105.5z" />
<glyph unicode="4" horiz-adv-x="1124" d="M29 561l841 952l179 -172q-236 -209 -271 -256l-454 -526h266l28 199l302 98l-39 -278l188 10l-33 -215h-186l-6 -45q-5 -38 -7 -82.5t-1 -63t0 -26.5l129 -13l-31 -153q-170 10 -393 10q-42 0 -100 -2.5t-95 -5.5l-37 -2l10 141l195 25l10 36q9 35 19.5 78t13.5 60l6 43 h-409z" />
<glyph unicode="5" horiz-adv-x="968" d="M2 -63q168 37 277 79.5t171 98t85.5 118.5t23.5 152q0 188 -197 188q-85 0 -180 -28l-78 110q24 116 60 276.5t60 263.5l24 103l43 37h178l485 21l-24 -260q-253 -29 -312 -29h-190q-24 -125 -61 -291q55 8 122 8q193 0 294.5 -89.5t101.5 -248.5q0 -528 -860 -661z" />
<glyph unicode="6" horiz-adv-x="1101" d="M49 418q0 133 43.5 272.5t133 274.5t212.5 248t296 197.5t370 119.5l14 -135q-156 -50 -284 -137t-211.5 -188.5t-141 -218.5t-82 -226t-24.5 -213q0 -108 33 -177t102 -69q56 0 97 33t61.5 85t29.5 102.5t9 98.5q0 86 -30.5 142.5t-84.5 56.5q-40 0 -66 -6l11 147 q65 21 139 21q171 0 265.5 -91.5t94.5 -256.5q0 -144 -72.5 -264.5t-194.5 -188.5t-265 -68q-212 0 -333.5 122t-121.5 319z" />
<glyph unicode="7" horiz-adv-x="1015" d="M43 -123l580 899q23 38 72 133t69 156h-303q-19 0 -109 -8q-1 -4 -41 -86l-30 -94l-160 6l84 430l43 41q190 -19 235 -19h639l11 -141l-838 -1409z" />
<glyph unicode="8" horiz-adv-x="1081" d="M29 293q0 67 28.5 130t79 113.5t103.5 89t116 72.5q-178 131 -178 318q0 89 42 162.5t111.5 120.5t157 72.5t181.5 25.5q105 0 193 -34t143 -102.5t55 -160.5q0 -201 -279 -381q100 -66 158.5 -147t58.5 -193q0 -82 -30 -149t-81 -113t-120.5 -77.5t-146 -45.5 t-158.5 -14q-88 0 -164 18.5t-137.5 55.5t-97 98.5t-35.5 140.5zM326 303q0 -74 42 -117t119 -43q99 0 155 57t56 156q0 41 -13.5 76t-43 65.5t-56.5 51.5t-73 51q-186 -137 -186 -297zM471 1040q0 -76 40.5 -126t119.5 -101q139 135 139 279q0 65 -34.5 103t-90.5 38 q-67 0 -120.5 -54t-53.5 -139z" />
<glyph unicode="9" horiz-adv-x="1099" d="M29 -63q132 35 242.5 94.5t186 129t133.5 154t92 164t55 165t28.5 151t7.5 127.5q0 107 -33.5 176t-101.5 69q-45 0 -81 -22t-57.5 -56t-35.5 -78.5t-19.5 -84.5t-5.5 -78q0 -88 31 -143.5t86 -55.5q42 0 64 6l-11 -147q-65 -21 -137 -21q-172 0 -266 92t-94 257 q0 144 72.5 264.5t194 188t263.5 67.5q212 0 333.5 -122t121.5 -319q0 -110 -30.5 -226.5t-88.5 -232.5t-148.5 -223.5t-203.5 -197t-261.5 -155.5t-314.5 -95z" />
<glyph unicode=":" horiz-adv-x="444" d="M31 104q0 81 47 142t117 61q54 0 85 -36.5t31 -96.5q0 -81 -47 -143t-117 -62q-54 0 -85 37.5t-31 97.5zM133 795q0 81 47 141.5t117 60.5q55 0 86 -36.5t31 -96.5q0 -81 -47 -143t-117 -62q-54 0 -85.5 38t-31.5 98z" />
<glyph unicode=";" horiz-adv-x="419" d="M-61 -213q154 55 192 193q-54 3 -80 38.5t-26 90.5q0 93 46 149.5t122 56.5q118 0 118 -145q0 -53 -14 -109t-44 -111.5t-71.5 -102t-101.5 -80.5t-129 -46zM127 825q0 82 47.5 144.5t118.5 62.5q56 0 87.5 -38t31.5 -99q0 -83 -47.5 -146t-118.5 -63q-56 0 -87.5 38.5 t-31.5 100.5z" />
<glyph unicode="&#x3c;" horiz-adv-x="985" d="M82 510l684 541l111 -154l-496 -387l383 -387l-156 -154z" />
<glyph unicode="=" horiz-adv-x="1198" d="M88 201l31 217h932l-29 -207zM145 590l31 217h932l-31 -207z" />
<glyph unicode="&#x3e;" horiz-adv-x="985" d="M106 121l498 387l-385 387l156 154l528 -541l-686 -541z" />
<glyph unicode="?" horiz-adv-x="864" d="M109 109q0 82 47 144t118 62q56 0 87.5 -38t31.5 -99q0 -83 -47.5 -146t-118.5 -63q-55 0 -86.5 39t-31.5 101zM186 1106l23 303q173 80 317 80q183 0 283 -87.5t100 -250.5q0 -221 -131 -354.5t-334 -139.5l-16 -163l-39 -33q-56 8 -188 8l-6 6l38 266l70 70 q50 -6 113 -6q73 0 129.5 50.5t83 124t26.5 153.5q0 94 -42 149t-128 55q-80 0 -133 -32l-49 -191z" />
<glyph unicode="@" horiz-adv-x="1900" d="M47 299q0 244 74.5 443t211 336.5t335.5 212.5t442 75q172 0 309 -39t238.5 -117t156 -203.5t54.5 -291.5q0 -193 -102.5 -360t-283 -272.5t-399.5 -121.5l-71 39q104 276 129 440q-96 -214 -226.5 -345.5t-271.5 -131.5q-82 0 -124 92.5t-42 225.5q0 129 41.5 266.5 t107 246.5t153 179.5t173.5 70.5q30 0 83 -8t111 -18.5t77 -13.5l166 40l79 -57q-58 -224 -92 -422.5t-41 -423.5q143 71 224 214t81 345q0 252 -160.5 393.5t-426.5 141.5q-144 0 -266.5 -50.5t-210.5 -139t-150 -207.5t-92.5 -256.5t-30.5 -286.5q0 -270 141 -411.5 t404 -141.5q45 0 156.5 8t200.5 16l89 7l15 -109q-317 -90 -561 -90q-124 0 -227.5 24t-192.5 78.5t-150.5 137t-96 206t-34.5 279.5zM762 350q0 -63 11 -95t44 -32q46 0 111 75.5t124 207t81 270.5q-127 55 -215 55q-35 0 -71.5 -69.5t-60.5 -182.5t-24 -229z" />
<glyph unicode="A" horiz-adv-x="1325" d="M-63 -10l10 149l90 15l108 176l535 1114l233 22l226 -1204l26 -110l109 -19l-31 -143q-92 10 -164 10q-110 0 -214 -2.5t-153 -5.5l-48 -2l12 149l119 19l8 106l-12 103h-371l-51 -131l-23 -78l111 -25l-31 -143q-117 10 -213 10q-78 0 -147 -2.5t-99 -5.5zM500 535 l264 4l-53 481z" />
<glyph unicode="B" horiz-adv-x="1292" d="M37 -10l10 143l127 25q9 27 24.5 87.5t18.5 88.5l111 715q16 108 16 182q0 25 -2 45l-117 24l33 154q92 -10 188 -10q42 0 206 10t210 10q177 0 295.5 -83.5t118.5 -227.5t-96.5 -251t-245.5 -142l-2 -15q137 -21 218 -99.5t81 -207.5q0 -111 -45.5 -198t-123 -141 t-175.5 -81.5t-209 -27.5q-62 0 -227 5t-224 5q-44 0 -91.5 -2.5t-73.5 -5.5zM516 164q56 -6 113 -6q127 0 209 82t82 215q0 106 -64 153t-166 47h-18l39 179h12q109 0 179.5 75.5t70.5 206.5q0 77 -51 128.5t-134 51.5q-36 0 -102 -8q-15 -58 -33 -178l-108 -715 q-23 -151 -29 -231z" />
<glyph unicode="C" horiz-adv-x="1269" d="M70 588q0 152 33.5 286t101.5 244t164.5 189.5t228.5 123.5t289 44q80 0 166 -13t125.5 -22.5t134.5 -34.5l-78 -367l-154 9l13 124q2 15 -13 84q-129 29 -217 29q-91 0 -164.5 -42.5t-121.5 -112.5t-81 -164t-47 -193.5t-14 -204.5q0 -88 15 -160.5t45.5 -128.5 t81.5 -87t120 -31q112 0 250 30q2 4 14 27.5t22 45t11 28.5l21 96l151 4l-34 -352q-95 -23 -145 -34t-139.5 -23.5t-168.5 -12.5q-297 0 -453.5 167t-156.5 452z" />
<glyph unicode="D" horiz-adv-x="1470" d="M25 -10l10 143l133 25q39 135 43 176l104 715q7 45 11.5 102t5.5 91v34l-125 24l33 154q102 -10 198 -10q46 0 206.5 10t207.5 10q199 0 337.5 -78t205.5 -214.5t67 -321.5q0 -186 -53 -342.5t-154 -272.5t-256.5 -181.5t-349.5 -65.5q-65 0 -216.5 6t-211.5 6 q-43 0 -92 -2.5t-77 -5.5zM512 164q54 -6 123 -6q111 0 198 43t140 111.5t88 164t48 190t13 199.5q0 93 -17 168t-53.5 134.5t-99 92.5t-147.5 33q-37 0 -131 -16q-1 -9 -15 -79t-16 -89l-104 -715q-18 -113 -27 -231z" />
<glyph unicode="E" horiz-adv-x="1228" d="M25 -10l10 143l133 25q8 16 24 81t19 95l104 715q19 118 19 190q0 21 -2 37l-125 24l33 154q120 -10 194 -10h539q18 0 75.5 5t105.5 10l48 5l33 -37l-33 -319l-145 -10v121q-11 46 -13 49q-78 8 -155 8h-215q-2 -14 -15.5 -81t-15.5 -85l-43 -293q18 -2 49 -2h109 q17 0 39 4.5t35 9.5l14 5l37 131l123 -11q-21 -129 -27 -170l-31 -260l-133 -12v123q-82 12 -123 12h-57q-48 0 -60 -2l-36 -250q-16 -104 -27 -217h246q66 0 153 17q31 46 52 88q26 68 38 116l140 -10l-82 -360l-43 -37q-184 8 -225 8h-568z" />
<glyph unicode="F" d="M25 -10l10 143l133 25q8 16 24 81t19 95l104 715q19 122 19 188q0 23 -2 39l-125 24l33 154q98 -10 194 -10h539q18 0 75.5 5t105.5 10l48 5l33 -37l-33 -319l-145 -10v121l-10 47q-97 10 -158 10h-215q-2 -14 -15.5 -81t-15.5 -85l-47 -315q20 -2 45 -2h113q18 0 40 4.5 t35 8.5l13 5l37 131l125 -10q-23 -129 -27 -170l-33 -260l-131 -13v123q-84 13 -123 13h-72q-33 0 -47 -2l-34 -234q-17 -122 -17 -190q0 -24 2 -41l187 -13l-33 -155q-226 10 -455 10q-43 0 -92 -2.5t-77 -5.5z" />
<glyph unicode="G" horiz-adv-x="1394" d="M72 594q0 189 55.5 349.5t160.5 279t267 185.5t365 67q84 0 175 -12.5t136 -23t141 -34.5l-76 -338l-157 8l8 96q1 3 1 7q0 21 -13 77q-135 29 -236 29q-96 0 -175 -40t-131 -107.5t-88 -159t-51.5 -191t-15.5 -206.5q0 -123 28.5 -214.5t96 -148.5t170.5 -57 q85 0 191 16q23 60 26 86l21 139q3 23 2.5 50.5t-2.5 50.5l-2 24l-209 17l39 200h221l235 7l50 -52q-46 -195 -60 -297l-53 -362q-267 -70 -479 -70q-209 0 -354.5 79t-216 218t-70.5 328z" />
<glyph unicode="H" horiz-adv-x="1650" d="M25 -10l10 143l133 25q38 128 43 176l104 715q7 46 10.5 92t5 89.5t1.5 45.5l-125 24l33 154q98 -10 194 -10q102 0 200.5 2t146.5 6l48 2l-14 -166l-131 -12q-31 -95 -41 -166l-47 -313l545 8l35 244q6 45 9.5 91.5t5 89.5t1.5 46l-125 24l33 154q98 -10 194 -10 q102 0 201 2t147 6l48 2l-15 -166l-131 -12q-34 -106 -43 -166l-102 -715q-7 -45 -11 -95t-6 -96l-2 -46l125 -13l-32 -155q-163 10 -392 10q-43 0 -92 -2.5t-77 -5.5l-27 -2l10 143l133 25q1 3 20 77.5t23 98.5l41 284h-541l-32 -223q-17 -108 -17 -237l123 -13l-33 -155 q-162 10 -391 10q-43 0 -92 -2.5t-77 -5.5z" />
<glyph unicode="I" horiz-adv-x="811" d="M35 -10l10 143l133 25q1 3 20 77.5t23 98.5l105 715q6 45 9.5 91.5t5 89.5t1.5 46l-125 24l33 154q98 -10 194 -10q102 0 201 2.5t147 5.5l48 2l-15 -166l-131 -12q-34 -106 -43 -166l-102 -715q-7 -45 -11 -95t-6 -96l-2 -46l125 -13l-32 -155q-163 10 -392 10 q-43 0 -92 -2.5t-77 -5.5z" />
<glyph unicode="J" horiz-adv-x="743" d="M-63 -346q198 328 204 369l150 1026q16 117 16 227l-125 24l33 154q99 -10 195 -10q102 0 200.5 2.5t146.5 5.5l48 2l-14 -166l-132 -12q-33 -100 -43 -166l-157 -1090q-7 -49 -124.5 -167t-295.5 -263z" />
<glyph unicode="K" horiz-adv-x="1499" d="M31 -10l10 143l127 25q38 128 43 176l104 715q7 46 10.5 92t5 89.5t1.5 45.5l-117 24l31 154q88 -10 186 -10q101 0 198.5 2t145.5 6l47 2l-14 -166l-125 -12q-31 -95 -41 -166l-104 -715q-17 -108 -17 -237l115 -13l-33 -155q-158 10 -385 10q-44 0 -91 -2.5t-72 -5.5z M594 723l385 459l70 106l-58 12l33 154q90 -10 190 -10t184 2t118 6l34 2l-14 -166l-113 -12q-85 -74 -170 -158l-309 -360q315 -465 334 -494q12 -18 90 -106l92 -13l-33 -155q-182 10 -409 10q-44 0 -90 -2.5t-70 -5.5l-24 -2l10 143l78 17q-10 20 -30 62.5t-35.5 74.5 t-25.5 49z" />
<glyph unicode="L" horiz-adv-x="1126" d="M25 -10l10 143l133 25q38 128 43 176l104 715q7 46 10.5 92t5 89.5t1.5 45.5l-125 24l33 154q98 -10 194 -10q102 0 200.5 2.5t146.5 5.5l48 2l-14 -166l-131 -12q-31 -95 -41 -166l-104 -715q-17 -122 -17 -217h185q70 0 153 17q45 77 49 88q34 89 41 116l140 -10 l-82 -360l-43 -37q-187 8 -226 8h-518q-43 0 -92 -2.5t-77 -5.5z" />
<glyph unicode="M" horiz-adv-x="1953" d="M10 -10l10 137l138 25q37 98 43 118l188 895q4 50 4 117l-127 25l31 147q117 -10 205 -10h293l32 -41q27 -233 39 -309l107 -641l317 671l121 279l45 41h203q44 0 109.5 2.5t109.5 5.5l43 2l-14 -147l-129 -23q-17 -79 -23 -119l-67 -895q0 -15 3.5 -60t4.5 -58l129 -13 l-31 -149q-143 10 -362 10q-38 0 -89 -2.5t-83 -5.5l-31 -2l10 137l135 25q18 86 35 180l76 729l-516 -1061h-191l-194 1061l-144 -729q-14 -76 -18 -180l131 -13l-35 -149q-88 10 -307 10q-38 0 -88.5 -2.5t-81.5 -5.5z" />
<glyph unicode="N" horiz-adv-x="1599" d="M25 -10l10 143l133 25q8 23 24 86t19 90l104 715q17 108 17 227l-123 24l31 154q98 -10 196 -10h211l31 -41q106 -258 129 -303l340 -629l84 578q14 106 14 227l-123 24l33 154l199 -10q72 0 155.5 2t130.5 6l48 2l-15 -166l-131 -12q-31 -96 -41 -166l-104 -715 l-58 -395h-280l-500 922l-78 -527q-6 -45 -9.5 -99t-5 -94t-1.5 -44l125 -13l-33 -155q-105 10 -334 10q-43 0 -92.5 -2.5t-77.5 -5.5z" />
<glyph unicode="O" horiz-adv-x="1529" d="M72 598q0 194 61.5 359t170.5 280.5t263 180.5t334 65q286 0 453.5 -173t167.5 -466q0 -193 -62 -357.5t-171 -280t-263 -180.5t-334 -65q-286 0 -453 173t-167 464zM434 555q0 -395 281 -395q116 0 201.5 52t138 149.5t77.5 228.5t25 297q0 200 -68.5 298.5t-209.5 98.5 q-116 0 -202.5 -52.5t-139 -150t-78 -229t-25.5 -297.5z" />
<glyph unicode="P" horiz-adv-x="1239" d="M25 -10l10 143l133 25q38 128 43 176l104 715q7 46 10.5 92t5 89.5t1.5 45.5l-125 24l33 154q98 -10 194 -10h29q53 1 203 10.5t204 9.5q190 0 301 -100t111 -281q0 -122 -53 -223.5t-140 -167t-197 -101.5t-226 -36h-105l-22 -160q-17 -108 -17 -237l144 -13l-33 -155 q-183 10 -412 10q-43 0 -92 -2.5t-77 -5.5zM586 723h26q155 0 247.5 95t92.5 265q0 109 -54.5 161t-170.5 52q-28 0 -51 -2q-28 -143 -33 -184z" />
<glyph unicode="Q" horiz-adv-x="1542" d="M72 598q0 194 61.5 359t170.5 280.5t263 180.5t334 65q286 0 453.5 -173t167.5 -466q0 -285 -131.5 -499.5t-360.5 -315.5l121 -95q13 -9 86 -43.5t140 -64.5l67 -31l-219 -254l-494 420h-39q-286 0 -453 173t-167 464zM434 555q0 -395 281 -395q116 0 201.5 52 t138 149.5t77.5 228.5t25 297q0 200 -68.5 298.5t-209.5 98.5q-116 0 -202.5 -52.5t-139 -150t-78 -229t-25.5 -297.5z" />
<glyph unicode="R" horiz-adv-x="1347" d="M25 -10l10 143l139 25q38 128 43 176l111 715q16 114 16 227l-131 24l33 154q109 -10 211 -10q58 0 213.5 10t210.5 10q192 0 305.5 -98.5t113.5 -269.5q0 -151 -85.5 -269t-225.5 -186q60 -174 160 -373q5 -11 24 -51t29 -63l96 -9l-30 -155q-158 10 -389 10 q-48 189 -66 238l-121 329h-26q-40 0 -93 6l-26 -178q-19 -121 -19 -237l131 -13l-34 -155q-165 10 -396 10q-42 0 -93 -2.5t-81 -5.5zM598 739h49q324 0 324 346q0 211 -234 211q-25 0 -43 -2l-41 -184z" />
<glyph unicode="S" horiz-adv-x="1140" d="M35 68l88 395l166 -10q-21 -140 -21 -148q0 -14 17 -80q92 -57 204 -57q96 0 163 51t67 146q0 52 -30.5 95t-79.5 74.5t-108 62.5t-117.5 68t-107.5 81t-79.5 111.5t-30.5 150.5q0 211 149.5 339t378.5 128q205 0 434 -74l-84 -395l-167 10q22 147 22 153q0 10 -14 68 q-70 47 -148 47q-99 0 -161 -50.5t-62 -135.5q0 -48 30.5 -88.5t79.5 -71t108.5 -61t118.5 -67t108 -80t79.5 -109t30.5 -146.5q0 -152 -79 -269t-209.5 -177t-288.5 -60q-75 0 -149.5 10t-127.5 25t-95.5 29.5t-63.5 24.5z" />
<glyph unicode="T" horiz-adv-x="1247" d="M104 1087l64 340l43 37q184 -20 223 -20h653q17 0 74.5 5t106.5 10l49 5l33 -37l-35 -340l-146 -10q4 61 4 99q0 27 -2 43q0 7 -8 47q-87 10 -149 10h-101q-32 -107 -41 -166l-104 -715q-16 -117 -16 -237l122 -13l-32 -155q-162 10 -389 10q-44 0 -93.5 -2.5t-77.5 -5.5 l-28 -2l10 143l133 25q38 125 45 176l103 715q7 45 10.5 90.5t4.5 89t1 47.5h-92q-57 0 -160 -10q-21 -41 -22 -47q-23 -59 -39 -142z" />
<glyph unicode="U" horiz-adv-x="1554" d="M168 1300l33 154q98 -10 194 -10q102 0 203.5 2t151.5 6l51 2l-15 -166l-131 -12q-34 -99 -41 -166l-86 -578q-5 -36 -5 -68q0 -98 47 -168q63 -93 198 -93q148 0 223.5 83.5t98.5 245.5l75 517q6 45 9.5 92t5.5 90.5t2 44.5l-125 24l33 154q98 -10 196 -10 q102 0 188.5 2t121.5 6l36 2l-14 -166l-131 -12q-8 -24 -22.5 -80.5t-18.5 -85.5l-82 -561q-39 -268 -212.5 -424t-453.5 -156q-280 -1 -406 155q-96 119 -96 304q0 57 9 121l71 500q18 115 18 190q0 20 -1 37z" />
<glyph unicode="V" horiz-adv-x="1406" d="M115 1311l30 143q107 -10 181 -10q106 0 212 2t159 6l53 2l-13 -149l-131 -19q-1 -8 -1.5 -19.5t-1.5 -42.5t1 -44l117 -756l362 784q9 18 15 37.5t8 30.5l2 10l-121 25l31 143q123 -10 219 -10q76 0 150 2t109 6l36 2l-12 -149l-99 -15q-85 -115 -114 -176l-559 -1114 h-238l-244 1182q-4 23 -13 50.5t-15 43.5l-7 16z" />
<glyph unicode="W" horiz-adv-x="2045" d="M121 1311l31 143q106 -10 180 -10q106 0 212 2.5t159 5.5l53 2l-13 -149l-131 -19q-1 -6 -3 -16t-5 -38t-2 -52l66 -756l399 958h233l115 -958l314 784q8 20 11 39.5t2 28.5l-1 10l-121 25l31 143q125 -10 219 -10q76 0 150 2.5t110 5.5l35 2l-13 -149l-98 -15 q-65 -94 -104 -176l-504 -1114h-236l-129 866l-383 -866h-237l-197 1182q-4 28 -10.5 55.5t-11.5 40.5l-4 14z" />
<glyph unicode="X" horiz-adv-x="1382" d="M-59 -10l12 143l106 19q157 147 187 184l299 366l-234 441l-82 151l-100 17l33 143q110 -10 186 -10q105 0 202.5 2t143.5 6l45 2l-18 -151l-78 -11q28 -99 57 -155l82 -176l164 223q24 29 74 110l-74 17l33 143q105 -10 201 -10q75 0 147 2t107 6l34 2l-14 -151 l-131 -17q-108 -94 -131 -121l-305 -391l272 -504q57 -85 80 -114l94 -11l-33 -155q-163 10 -403 10q-33 0 -73.5 -2.5t-64.5 -5.5l-24 -2l13 143l71 14q-34 107 -55 144l-117 227l-194 -248q-20 -23 -78 -116l92 -9l-35 -155q-127 10 -301 10q-44 0 -91.5 -2.5t-73.5 -5.5z " />
<glyph unicode="Y" horiz-adv-x="1421" d="M104 1311l31 143q104 -10 178 -10q106 0 212 2.5t159 5.5l53 2l-12 -149l-104 -19q4 -67 14 -106l147 -424l285 452q4 7 8 26.5t6 35.5l2 16l-79 25l30 143q125 -10 219 -10q76 0 150 2.5t109 5.5l36 2l-12 -149l-119 -15q-108 -110 -149 -176l-398 -614l-14 -105 q-6 -45 -9.5 -96t-5 -94t-1.5 -47l125 -13l-33 -155q-162 10 -391 10q-43 0 -92 -2.5t-77 -5.5l-28 -2l10 143l133 25q1 3 20 77.5t23 98.5l27 186l-260 662q-8 22 -27.5 49.5t-35.5 44.5l-15 16z" />
<glyph unicode="Z" horiz-adv-x="1222" d="M18 0l2 164q208 237 265 321l422 572l122 205h-301q-50 0 -163 -11l-33 -57q-37 -97 -51 -156l-144 11l64 378l45 37q186 -20 225 -20h760l-2 -164l-256 -330l-375 -516l-158 -252h305q81 0 168 17q47 75 54 96q37 94 43 121l135 -10l-80 -377l-47 -37q-186 8 -227 8 h-773z" />
<glyph unicode="[" horiz-adv-x="542" d="M-41 -188q60 340 64 381l137 935l45 373l57 60l344 8l-12 -135l-143 -19q-36 -102 -48 -184l-165 -1149q-11 -84 -11 -184l140 -19l-25 -135q-203 8 -342 8z" />
<glyph unicode="\" horiz-adv-x="815" d="M150 1522l186 61l342 -1655l-189 -61z" />
<glyph unicode="]" horiz-adv-x="542" d="M-63 -256l12 135l141 19q35 102 47 184l166 1149q10 76 10 184l-139 19l25 135q203 -8 344 -8l41 -60q-60 -332 -66 -373l-137 -935l-45 -381l-57 -60z" />
<glyph unicode="^" horiz-adv-x="1167" d="M76 764l653 735l436 -735l-192 -121l-291 541l-444 -541z" />
<glyph unicode="_" horiz-adv-x="1032" d="M-8 -475l20 194h1032l-36 -194h-1016z" />
<glyph unicode="`" horiz-adv-x="714" d="M229 1391l95 155l411 -270l-94 -119l-133 100z" />
<glyph unicode="a" d="M39 281q0 173 68 351t180 295t227 117q31 0 84 -8t111 -18.5t77 -13.5l166 40l82 -57q-55 -218 -88 -408.5t-43 -406.5l160 -14l-8 -109l-412 -86l-72 37q109 280 134 440q-98 -214 -229 -345.5t-273 -131.5q-56 0 -94 47.5t-54 116.5t-16 154zM326 352q0 -62 11 -93.5 t44 -31.5q34 0 80.5 45t91.5 118t84 176t57 208q-131 53 -215 53q-35 0 -71 -68t-59 -179.5t-23 -227.5z" />
<glyph unicode="b" horiz-adv-x="1052" d="M35 0q83 289 141.5 707t77.5 675l-139 19l-6 108l405 68l70 -57q-132 -683 -156 -830q92 161 203.5 254.5t230.5 93.5q56 0 94 -47t54 -116t16 -154q0 -129 -41 -267t-106.5 -247t-153.5 -179.5t-174 -70.5q-21 0 -57.5 4.5t-62 9t-73.5 13t-57 10.5l-195 -31zM371 227 q136 -55 215 -55q35 0 70.5 68.5t58 180t22.5 228.5q0 63 -10.5 94t-42.5 31q-34 0 -80.5 -45t-91.5 -118t-84 -176t-57 -208z" />
<glyph unicode="c" horiz-adv-x="794" d="M14 276q0 119 45 255.5t112 245t151.5 181t158.5 72.5q140 0 277 -18l51 -80l-72 -334l-112 6v193q-85 32 -156 32q-39 0 -79 -80t-65.5 -203t-25.5 -241q0 -135 102 -135q96 0 252 156l97 -82q-85 -125 -210 -202.5t-253 -78.5q-128 0 -200.5 82t-72.5 231z" />
<glyph unicode="d" d="M39 281q0 173 68 351t180 295t227 117q42 0 217 -30q34 243 41 368l-162 19l-6 108l428 68l70 -57q-129 -632 -215 -1346l176 -16l-8 -109l-412 -86l-72 37q40 108 56 154t37.5 121t40.5 163q-100 -214 -230.5 -344.5t-271.5 -130.5q-56 0 -94 47.5t-54 116.5t-16 154z M326 352q0 -62 11 -93.5t44 -31.5q34 0 80.5 45t91.5 118t84 176t57 208q-131 53 -215 53q-35 0 -71 -68t-59 -179.5t-23 -227.5z" />
<glyph unicode="e" horiz-adv-x="864" d="M14 276q0 120 51 256.5t127 245t169 180.5t171 72q330 0 330 -182q0 -164 -149 -284.5t-412 -166.5q-4 -31 -4 -88q0 -76 30 -111.5t81 -35.5q60 0 141.5 51.5t144.5 116.5l94 -82q-90 -124 -229.5 -204.5t-267.5 -80.5q-123 0 -200 76.5t-77 236.5zM319 528 q128 32 204.5 107.5t76.5 152.5q0 58 -108 58q-50 0 -97.5 -92t-75.5 -226z" />
<glyph unicode="f" horiz-adv-x="671" d="M-362 -475l90 229q78 -12 118 -12q140 0 199 49q20 17 39 62.5t37 127t31 148.5t30 188t25 181t24 191t19 159h-180l14 135q12 4 38.5 13t40 14t32.5 12t32.5 13.5t22.5 13.5q9 6 16.5 15.5t12.5 19.5t8.5 19.5t5.5 16.5l2 6q47 203 220 327t407 124q23 0 52.5 -3 t47.5 -6l18 -3l-88 -222q-67 13 -110 13q-70 0 -132 -17t-79 -41q-32 -48 -78 -286h219l-43 -164h-207q-27 -165 -56.5 -395t-51 -355.5t-52.5 -195.5q-45 -109 -118.5 -187.5t-159 -119t-167 -58.5t-165.5 -18q-62 0 -114 6z" />
<glyph unicode="g" horiz-adv-x="1056" d="M-57 -426l88 244q165 -78 317 -78q69 0 130 14t87 37q33 29 33 195q0 18 45 186.5t55 259.5q-96 -211 -226 -340t-271 -129q-55 0 -93 47t-54.5 117t-16.5 154q0 173 68.5 351t181 295t227.5 117q34 0 87 -8t110.5 -19t74.5 -13l166 40l80 -57q-85 -310 -166 -956 q-15 -119 -62 -211.5t-108.5 -148t-141 -91t-152 -48.5t-148.5 -13q-106 0 -188 16t-123 39zM326 352q0 -61 11 -93t42 -32q46 0 110 74t122.5 204t80.5 269q-127 53 -213 53q-35 0 -71 -68t-59 -179.5t-23 -227.5z" />
<glyph unicode="h" horiz-adv-x="1187" d="M35 0q83 289 141.5 707t77.5 675l-139 19l-6 108l405 68l70 -57q-22 -120 -63.5 -336t-69 -365t-45.5 -266q216 491 514 491q77 0 120 -47.5t43 -122.5q0 -95 -47.5 -340.5t-58.5 -365.5l141 -10l-8 -109l-412 -86l-69 37q157 545 157 690q0 90 -43 90q-70 0 -157.5 -124 t-152.5 -297t-81 -318l-6 -41l-235 -37z" />
<glyph unicode="i" horiz-adv-x="628" d="M70 0q119 446 145 842l-141 8l2 106l391 88l80 -57q-42 -166 -83 -390.5t-63 -424.5l160 -14l-8 -109l-414 -86zM293 1331q0 73 51 135t119 62q135 0 135 -135q0 -71 -51.5 -132t-118.5 -61q-135 0 -135 131z" />
<glyph unicode="j" horiz-adv-x="616" d="M-123 -412q65 119 132 268t71 173q114 479 131 813l-139 8v106l391 88l82 -57q-65 -273 -97.5 -466.5t-74.5 -551.5q-3 -24 -30.5 -64.5t-83 -99.5t-92.5 -97t-110 -108t-84 -81zM291 1331q0 73 51.5 135t118.5 62q137 0 137 -135q0 -71 -52.5 -132t-119.5 -61 q-65 0 -100 33.5t-35 97.5z" />
<glyph unicode="k" horiz-adv-x="1110" d="M35 0q63 224 129.5 641t89.5 741l-139 19l-6 108l405 68l70 -57q-24 -131 -81.5 -430t-80.5 -437q91 169 230.5 280t260.5 111q181 0 181 -172q0 -137 -87 -242.5t-266 -189.5q96 -165 197 -266l139 -16l-8 -109l-348 -86l-234 399v101q152 53 237 133t85 172 q0 26 -14 41.5t-39 15.5q-68 0 -150 -104t-148.5 -269.5t-92.5 -334.5q-9 -55 -15 -117l-237 -37z" />
<glyph unicode="l" horiz-adv-x="595" d="M35 0q83 289 141.5 707t77.5 675l-139 19l-6 108l405 68l70 -57q-165 -910 -211 -1348l153 -14l-8 -109l-412 -86z" />
<glyph unicode="m" horiz-adv-x="1785" d="M55 0q138 505 160 842l-139 8v106l391 88l80 -57q-77 -230 -115 -401q33 71 69 133t84 123.5t99.5 104.5t116 70t131.5 27q77 0 121.5 -48t44.5 -122q0 -52 -15 -163q84 149 193.5 241t241.5 92q77 0 120 -47.5t43 -122.5q0 -95 -47.5 -340.5t-58.5 -365.5l141 -10 l-8 -109l-412 -86l-69 37q157 545 157 690q0 90 -43 90q-51 0 -114.5 -71.5t-117.5 -178.5t-97 -235t-58 -238l-6 -57l-235 -37l-72 37q160 556 160 690q0 90 -45 90q-66 0 -147.5 -110t-144 -268t-87.5 -304l-15 -98l-237 -37z" />
<glyph unicode="n" horiz-adv-x="1210" d="M55 0q139 520 160 842l-139 8v106l391 88l80 -57q-77 -230 -115 -401q33 71 69 132.5t84.5 123t100.5 105t117.5 70.5t134.5 27q77 0 121.5 -48t44.5 -122q0 -95 -48 -340t-59 -362l144 -14l-8 -109l-412 -86l-74 37q160 541 160 690q0 90 -45 90q-66 0 -149 -110.5 t-147.5 -269.5t-88.5 -304q-7 -40 -15 -96l-237 -37z" />
<glyph unicode="o" horiz-adv-x="995" d="M31 342q0 143 47.5 273.5t127 224t189.5 149t230 55.5q165 0 250.5 -96t85.5 -282q0 -191 -79.5 -353t-216.5 -256t-298 -94q-163 0 -249.5 97t-86.5 282zM330 350q0 -93 28 -144.5t76 -51.5q109 0 168.5 131t59.5 372q0 92 -28 144.5t-75 52.5q-110 0 -169.5 -131 t-59.5 -373z" />
<glyph unicode="p" horiz-adv-x="1058" d="M-12 -530q78 287 136.5 690t76.5 682l-144 8v106l392 88l81 -57q-50 -146 -88 -280q94 157 204.5 247t227.5 90q55 0 93 -47t54.5 -116.5t16.5 -153.5q0 -104 -26.5 -214.5t-73.5 -207t-106 -174.5t-130.5 -123t-140.5 -45q-41 0 -201 29q-39 -272 -65 -522l-238 -37z M383 233q127 -53 215 -53q35 0 70 67.5t58.5 179.5t23.5 228q0 61 -11.5 93t-42.5 32q-46 0 -110 -74t-122.5 -204t-80.5 -269z" />
<glyph unicode="q" horiz-adv-x="1052" d="M39 281q0 173 68 351t180 295t227 117q28 0 75 -6.5t108.5 -18t74.5 -13.5l160 38l80 -57q-100 -360 -213 -1352l159 -14l-8 -108l-411 -86l-72 36q66 254 119 523q5 27 36 152.5t48 234.5q-93 -187 -215 -298.5t-252 -111.5q-56 0 -94 47.5t-54 116.5t-16 154zM328 352 v-18q0 -48 9 -75q11 -32 44 -32q34 0 80.5 45t91.5 118t84 176t57 208q-131 53 -215 53q-35 0 -70.5 -68t-58 -179.5t-22.5 -227.5z" />
<glyph unicode="r" horiz-adv-x="870" d="M55 0q137 516 160 842l-139 8v106l391 88l80 -57q-57 -135 -86.5 -222.5t-50.5 -186.5q88 196 208.5 331t206.5 135q14 0 52 -10l51 -80l-88 -387l-113 6l-2 191q-81 -37 -179.5 -193t-150.5 -333l-33 -238l-237 -37z" />
<glyph unicode="s" horiz-adv-x="835" d="M-6 156l98 243l98 -26l-4 -191q70 -61 154 -61q109 0 109 112q0 31 -25 65.5t-62 65t-81 71t-81 81.5t-62 99.5t-25 121.5q0 143 106.5 225t294.5 82q47 0 112 -8t106 -16l42 -8l45 -80l-80 -264l-108 6l-4 174q-60 49 -142 49q-38 0 -62 -24t-24 -64q0 -35 37 -78 t89.5 -87.5t105.5 -93t90 -111.5t37 -126q0 -154 -117 -252t-301 -98q-162 0 -326 100z" />
<glyph unicode="t" horiz-adv-x="675" d="M63 848l17 133q20 8 69 25t87.5 32.5t60.5 30.5q16 11 48.5 57t56.5 86l24 41l135 -43l-37 -198h199l-41 -164h-186q-57 -336 -97 -676l203 -14l-8 -109l-455 -86l-69 37q58 232 90.5 420t60.5 428h-158z" />
<glyph unicode="u" horiz-adv-x="1177" d="M45 850v106l391 88l82 -57q-151 -520 -151 -670q0 -90 43 -90q77 0 172 140q68 102 126.5 251t88.5 289q11 62 16 101l236 36l71 -36q-77 -290 -118.5 -481t-53.5 -355l160 -14l-8 -109l-412 -86l-72 37q111 294 132 438q-40 -91 -88.5 -169t-112.5 -150t-145 -114 t-169 -42q-77 0 -120 47t-43 121q0 92 54 337t62 374z" />
<glyph unicode="v" horiz-adv-x="1019" d="M49 850v106l334 88l84 -57v-215q0 -41 -41 -268.5t-41 -267.5q0 -19 13.5 -31t35.5 -12q72 0 148 80t126 204t50 242q0 3 -10 123l-130 8v106l347 88l79 -57q-8 -146 -57 -297.5t-127 -279.5t-174 -229.5t-205.5 -159.5t-212.5 -58q-172 0 -172 146q0 57 46 293t46 292 q0 66 -4 148z" />
<glyph unicode="w" horiz-adv-x="1603" d="M25 850v106l335 88l82 -57v-215q0 -41 -41 -268.5t-41 -267.5q0 -20 15 -31.5t35 -11.5q86 0 165.5 78.5t126 200.5t46.5 247q0 23 -31 287l227 36l70 -36l12 -234q0 -41 -36 -268.5t-36 -267.5q0 -20 15.5 -31.5t34.5 -11.5q79 0 161 80t134.5 203.5t52.5 242.5 q0 11 -11 123l-129 8v106l347 88l79 -57q-6 -111 -39 -231.5t-85.5 -233.5t-126 -215t-157.5 -178t-184 -121t-200 -45q-76 0 -112 39t-36 107q0 16 4 110q-98 -119 -215 -187.5t-243 -68.5q-93 0 -132.5 38t-39.5 108q0 57 46 293t46 292q0 62 -4 148z" />
<glyph unicode="x" horiz-adv-x="1042" d="M-53 168q49 19 124 52t89 42q22 13 221 223q-81 202 -170 357l-133 8l-23 104l363 90l82 -57q40 -137 94 -285q21 21 92 91t105 108l194 143l66 -45l12 -178q-25 -10 -63 -23t-63.5 -22t-33.5 -14q-24 -14 -241 -242q65 -170 149 -346l190 -16l-8 -109l-364 -86l-72 37 q-67 204 -106 307q-29 -30 -96.5 -96.5t-98.5 -99.5l-195 -144l-63 45z" />
<glyph unicode="y" horiz-adv-x="1103" d="M-10 -426l88 244q170 -78 317 -78q69 0 131 14t86 37q35 31 35 199q-1 18 45 191t53 255q-31 -72 -67.5 -136t-85.5 -127t-102.5 -108.5t-120 -73.5t-136.5 -28q-77 0 -120 47t-43 121q0 92 54 337t62 374l-141 8v106l391 88l82 -57q-151 -520 -151 -670q0 -90 43 -90 q51 0 107 57t105 148.5t90 197t70 212.5l-141 8v106l358 88l80 -57q-78 -285 -166 -956q-15 -119 -62 -211.5t-108.5 -148t-141 -91t-152 -48.5t-148.5 -13q-106 0 -188 16t-123 39z" />
<glyph unicode="z" horiz-adv-x="929" d="M-12 51q359 434 563 776q-187 -2 -245 -11q-33 -4 -70 -13l-52 -154l-108 6l16 310l51 79l629 -47l119 31l49 -94q-200 -252 -318.5 -421t-224.5 -347q185 0 299 27q12 26 39.5 88t44.5 96l103 -31q-41 -272 -47 -307l-70 -66l-594 27l-104 -27z" />
<glyph unicode="{" horiz-adv-x="591" d="M27 -188l163 716q-20 26 -68 52t-69 26l23 101q16 0 70.5 25t82.5 50q14 196 25 375.5t16 261.5l4 82l58 60l344 8l-12 -135l-144 -19q-35 -102 -47 -184l-49 -479q-31 -25 -69.5 -46.5t-61.5 -30.5l-23 -9l-2 -19q76 -29 129 -86l-90 -479q-10 -72 -10 -184l139 -19 l-24 -135q-203 8 -344 8z" />
<glyph unicode="|" horiz-adv-x="571" d="M57 -231l262 1787l193 -16l-262 -1790z" />
<glyph unicode="}" horiz-adv-x="591" d="M-84 -256l12 135l142 19q35 102 47 184l49 479q31 25 69.5 46.5t60.5 30.5l23 9l3 19q-76 29 -129 86l90 479q10 76 10 184l-139 19l24 135q203 -8 344 -8l41 -60l-166 -717q22 -27 70 -52t70 -25l-23 -101q-17 0 -72.5 -26t-83.5 -52l-43 -716l-57 -60z" />
<glyph unicode="~" horiz-adv-x="1236" d="M92 442q7 10 19.5 26t48 57t68.5 72.5t72.5 57t68.5 25.5q60 0 157.5 -31t189 -61.5t136.5 -30.5q27 0 65 25t63 50l24 25l98 -92q-7 -10 -19.5 -26t-48 -56.5t-68.5 -72t-72.5 -57t-68.5 -25.5q-63 0 -246 61.5t-237 61.5q-27 0 -65 -25.5t-63 -50.5l-24 -25z" />
<glyph unicode="&#xa1;" horiz-adv-x="489" d="M-35 -410q111 447 158 768l16 158l37 33q10 -2 76.5 -6t116.5 -4q-13 -75 -21 -136l-108 -852l-232 -18zM168 834q0 82 47.5 144t118.5 62q56 0 87.5 -38t31.5 -99q0 -83 -47.5 -146t-118.5 -63q-56 0 -87.5 39t-31.5 101z" />
<glyph unicode="&#xa2;" horiz-adv-x="1034" d="M63 543q0 270 146 451t397 198l43 213h129l-39 -215q64 -5 131.5 -16.5t102.5 -19.5l35 -9l-84 -357h-154l18 111l5 80q-53 53 -125 53q-61 0 -109.5 -27t-79.5 -72t-51 -107t-28.5 -127t-8.5 -138q0 -229 205 -229q63 0 125.5 16t93.5 32l31 17l53 -118 q-80 -63 -173 -101.5t-183 -44.5l-41 -213h-131l41 217q-173 22 -261 126t-88 280z" />
<glyph unicode="&#xa3;" horiz-adv-x="1224" d="M41 127l137 23q39 143 45 184l17 117l-138 -7l17 134l141 6l14 104l-151 -6l16 133l154 6l20 135q19 129 95.5 223.5t188.5 140.5t247 46q206 0 420 -45l-111 -393l-121 6l6 242q-118 24 -182 24q-103 0 -165 -56.5t-75 -144.5l-24 -163l393 16l-16 -131l-396 -19 l-16 -106l408 18l-17 -131l-409 -20l-11 -68q-16 -104 -16 -217h250q75 0 172 19l98 196l119 -10l-74 -338l-67 -59q-172 14 -213 14h-578l-170 -6z" />
<glyph unicode="&#xa5;" horiz-adv-x="1202" d="M53 1208l17 138q100 -11 172 -11q96 0 197 2.5t153 5.5l53 3l-20 -142l-97 -18q13 -79 19 -99l125 -358l252 385q3 4 7.5 22t7.5 34l3 16l-80 24l21 136q127 -11 217 -11q71 0 142 2.5t106 5.5l36 3l-22 -142l-107 -14q-123 -133 -143 -164l-121 -180l121 6l-16 -131 l-197 -8l-72 -109l265 10l-17 -131l-321 -14l-17 -117q-4 -34 -7.5 -76t-6 -83t-2.5 -43l117 -13l-23 -147q-141 10 -360 10q-40 0 -89.5 -2.5t-79.5 -5.5l-30 -2l-6 135l145 25q1 5 10 39.5t17.5 71t11.5 52.5l19 144l-285 -13l16 134l240 10l-41 102l-195 -8l17 133l127 4 l-105 271q-4 10 -23.5 35.5t-36.5 46.5l-17 20z" />
<glyph unicode="&#xa6;" horiz-adv-x="571" d="M57 -231l99 665l192 -14l-98 -670zM211 819l108 737l193 -16l-109 -737z" />
<glyph unicode="&#xa7;" horiz-adv-x="903" d="M-27 -162l76 299l107 -8l6 -86l8 -86q76 -39 164 -39q57 0 97 28.5t40 80.5q0 31 -31.5 66.5t-78 67t-101.5 72.5t-101.5 81.5t-78 96t-31.5 113.5t21 119q23 63 68 115t78 73l34 21l63 -59q-39 -45 -39 -99q0 -37 26.5 -73.5t69 -69t93.5 -67.5t102 -75t93.5 -85 t69 -105t26.5 -127q0 -77 -40 -140.5t-105.5 -103t-144.5 -60.5t-161 -21q-81 0 -163.5 17.5t-124.5 35.5zM166 1155q0 100 57 174t146.5 110t197.5 36q72 0 146.5 -8.5t113.5 -16.5l39 -8l45 -80l-80 -258l-106 8q0 13 -1 40t-1 42v84q-87 45 -176 45q-42 0 -72.5 -33 t-30.5 -76q0 -27 24 -57t62.5 -59t85.5 -60.5t93.5 -67.5t85 -74t62.5 -86.5t24 -98.5q0 -63 -20.5 -120t-49.5 -93.5t-57.5 -63.5t-49.5 -39l-20 -12l-66 57q46 67 46 107q0 37 -27.5 73t-71.5 68.5t-97 67t-106 75t-97 86t-71.5 107.5t-27.5 131z" />
<glyph unicode="&#xa8;" horiz-adv-x="714" d="M106 1317q0 73 43.5 120.5t116.5 47.5q55 0 85 -30.5t30 -86.5q0 -74 -42 -121t-116 -47q-56 0 -86.5 31.5t-30.5 85.5zM580 1317q0 73 41.5 120.5t115.5 47.5q55 0 85 -30.5t30 -86.5q0 -74 -42 -121t-116 -47q-56 0 -85 31.5t-29 85.5z" />
<glyph unicode="&#xa9;" horiz-adv-x="1730" d="M117 512q0 152 59.5 291t160 239t238.5 159t289 59q153 0 292 -58.5t239.5 -158t159.5 -238.5t59 -293q0 -150 -59.5 -288t-160 -239t-239.5 -161t-291 -60q-150 0 -287.5 58t-238.5 157t-161 238.5t-60 294.5zM258 512q0 -122 48.5 -234.5t129.5 -193.5t193.5 -129.5 t234.5 -48.5q124 0 236 48.5t193 130t129 193.5t48 234t-48 233.5t-129 193.5t-193.5 130.5t-235.5 48.5q-164 0 -303 -80t-221 -219.5t-82 -306.5zM455 518q0 197 112 313.5t324 116.5q30 0 58 -2t60.5 -7.5t47.5 -8.5t54 -12t46 -11l-18 -223l-101 4l-6 80q0 15 -14 43 q-73 12 -127 12q-66 0 -108 -41.5t-59 -106.5t-17 -155q0 -138 43.5 -221.5t138.5 -83.5q69 0 145 16q19 46 19 52l6 57l96 2l10 -211q-5 -1 -29.5 -6.5t-33 -7.5t-31.5 -7t-35 -6.5t-33.5 -5t-37 -5t-35.5 -2.5t-39 -1q-212 0 -324 116.5t-112 311.5z" />
<glyph unicode="&#xaa;" horiz-adv-x="770" d="M133 1104q0 114 45 230t120 192t153 76q26 0 97.5 -13t84.5 -14l112 27l58 -39q-74 -286 -86 -527l104 -8l-6 -76l-283 -55l-49 25q81 199 95 295q-64 -143 -153 -232.5t-187 -89.5q-36 0 -60.5 32.5t-34.5 77.5t-10 99zM334 1155q0 -25 1.5 -38t9 -23.5t22.5 -10.5 q46 0 110.5 100.5t87.5 233.5q-92 33 -139 33q-33 0 -62.5 -91t-29.5 -204z" />
<glyph unicode="&#xab;" horiz-adv-x="892" d="M33 496l381 475l125 -92l-273 -383l160 -383l-150 -93zM389 496l381 475l125 -92l-272 -383l159 -383l-149 -93z" />
<glyph unicode="&#xac;" horiz-adv-x="1198" d="M137 424l31 207h932l-72 -498h-197l48 299z" />
<glyph unicode="&#xad;" horiz-adv-x="518" d="M35 422l22 194h455l-37 -194h-440z" />
<glyph unicode="&#xae;" horiz-adv-x="1730" d="M117 512q0 152 59.5 291t160 239t238.5 159t289 59q153 0 292 -58.5t239.5 -158t159.5 -238.5t59 -293q0 -150 -59.5 -288t-160 -239t-239.5 -161t-291 -60q-150 0 -287.5 58t-238.5 157t-161 238.5t-60 294.5zM258 512q0 -122 48.5 -234.5t129.5 -193.5t193.5 -129.5 t234.5 -48.5q124 0 236 48.5t193 130t129 193.5t48 234t-48 233.5t-129 193.5t-193.5 130.5t-235.5 48.5q-164 0 -303 -80t-221 -219.5t-82 -306.5zM506 217l74 12q10 60 10 105v366q0 32 -2 61t-5 55t-3 30l-72 14l6 98q57 -6 125 -6q37 0 131 6.5t127 6.5q129 0 210 -68 t81 -182q0 -69 -36.5 -125t-100.5 -92q24 -49 55.5 -101t51 -79.5t24.5 -32.5q3 -6 15.5 -25.5t19.5 -32.5l45 -6l-5 -96q-93 6 -245 6q-44 106 -58 135l-94 178h-53v-75q0 -22 2 -46.5t4 -40.5t5 -33.5t3 -19.5l66 -8l-4 -96q-106 6 -258 6q-31 0 -59.5 -1.5t-41.5 -3.5 l-12 -1zM807 555h10q79 0 110 39t31 119q0 73 -30.5 107t-104.5 34h-10q-6 -55 -6 -90v-209z" />
<glyph unicode="&#xaf;" horiz-adv-x="714" d="M147 1221l23 149h682l-37 -149h-668z" />
<glyph unicode="&#xb0;" horiz-adv-x="780" d="M119 1001q0 160 106 261.5t269 101.5q128 0 209 -66.5t81 -185.5q0 -159 -107.5 -258.5t-270.5 -99.5q-128 0 -207.5 64t-79.5 183zM317 1010q0 -60 27 -95.5t82 -35.5q78 0 118 65.5t40 157.5q0 61 -26.5 99t-80.5 38q-78 0 -119 -68.5t-41 -160.5z" />
<glyph unicode="&#xb1;" horiz-adv-x="1230" d="M66 0l26 186l934 11l-29 -197h-931zM154 614l30 205h361l49 332h194l-45 -332h373l-29 -194l-370 -4l-45 -340h-205l49 337z" />
<glyph unicode="&#xb2;" horiz-adv-x="745" d="M100 922l2 139q147 118 230 190.5t136 132t70 100.5t17 89q0 88 -94 88q-55 0 -115 -31q-10 -22 -16 -47l-11 -57l-112 -6l29 237q134 45 276 45q137 0 210 -52t73 -146q0 -100 -93.5 -216.5t-310.5 -281.5h115q58 1 123 14q-2 -1 4 12.5t13 28.5t7 17l17 45l110 -9 l-51 -270l-47 -26q-114 4 -137 4h-445z" />
<glyph unicode="&#xb3;" horiz-adv-x="667" d="M84 891q170 15 274.5 90t104.5 188q0 107 -105 107l-77 -6l-5 104q112 20 173 79t61 146q0 37 -21 57.5t-59 20.5q-49 0 -96 -14l-12 -37l-13 -84l-116 -8l14 229q113 39 250 39q272 0 272 -198q0 -155 -176 -242q65 -12 108.5 -66t43.5 -120q0 -97 -81.5 -183.5 t-221 -143t-304.5 -67.5z" />
<glyph unicode="&#xb4;" horiz-adv-x="714" d="M229 1276l412 270l94 -155q-243 -116 -278 -134l-133 -100z" />
<glyph unicode="&#xb6;" horiz-adv-x="1091" d="M51 963q0 228 141.5 364.5t366.5 136.5q40 0 98 -10l-114 -807l-62 -51q-121 0 -216.5 39.5t-154.5 124t-59 203.5zM344 -197q65 116 132 265t73 176q79 332 188 1200h68q12 0 33 1t32 1l289 12l-14 -143l-125 -27q-93 -408 -143 -782q-2 -15 -10 -116.5t-22.5 -167 t-41.5 -105.5q-27 -39 -79 -96.5t-93.5 -98.5t-108 -106.5t-82.5 -81.5z" />
<glyph unicode="&#xb7;" horiz-adv-x="397" d="M72 717q0 82 47.5 144.5t118.5 62.5q56 0 87 -38t31 -100q0 -82 -47.5 -145t-118.5 -63q-56 0 -87 38.5t-31 100.5z" />
<glyph unicode="&#xb8;" horiz-adv-x="714" d="M43 -444l51 100q71 -23 107 -23q44 0 74 18.5t30 59.5q0 53 -76 53l-41 -2l-18 29l55 229h131l-49 -141q81 -2 129.5 -42.5t48.5 -110.5q0 -103 -72.5 -155t-183.5 -52q-51 0 -104.5 11.5t-81.5 25.5z" />
<glyph unicode="&#xb9;" horiz-adv-x="589" d="M174 915l8 99l119 14l6 24q20 75 23 93l61 409l-139 -45l-39 88q178 121 209 144q7 5 26 24t34 35l16 17l153 -17q-49 -245 -57 -311l-45 -303q-10 -58 -10 -158l100 -8l-25 -105q-106 7 -268 7z" />
<glyph unicode="&#xba;" horiz-adv-x="675" d="M127 1145q0 192 116.5 324.5t282.5 132.5q109 0 167.5 -64t58.5 -186q0 -190 -117 -323.5t-283 -133.5q-109 0 -167 64t-58 186zM336 1153q0 -59 17.5 -92t47.5 -33q69 0 105.5 81.5t36.5 236.5q0 57 -18 90.5t-46 33.5q-143 0 -143 -317z" />
<glyph unicode="&#xbb;" horiz-adv-x="892" d="M-2 113l270 383l-159 383l149 92l246 -475l-383 -476zM352 113l271 383l-158 383l149 92l246 -475l-383 -476z" />
<glyph unicode="&#xbc;" horiz-adv-x="1597" d="M113 608l8 99l119 14l6 26q19 74 22 91l62 409l-140 -45l-38 88q177 121 208 144q7 5 26 24t34 35l16 16l154 -16q-50 -245 -58 -311l-45 -303q-10 -58 -10 -158l101 -8l-25 -105q-106 6 -268 6zM172 -8l1061 1483l125 -93l-1059 -1482zM819 371l553 612l125 -121 q-149 -126 -172 -157l-299 -336h160l16 116l215 70l-24 -174l125 6l-23 -149h-123l-4 -27q-2 -15 -3 -32.5t-1 -29.5v-24t0.5 -16t-0.5 -5l80 -6l-19 -104q-122 6 -276 6l-148 -6l7 96l127 14q0 -1 6 22.5t13 53t9 41.5l2 17h-256z" />
<glyph unicode="&#xbd;" horiz-adv-x="1695" d="M113 608l8 99l119 14l6 26q19 74 22 91l62 409l-140 -45l-38 88q177 121 208 144q7 5 26 24t34 35l16 16l154 -16q-50 -245 -58 -311l-45 -303q-10 -58 -10 -158l101 -8l-25 -105q-106 6 -268 6zM172 -8l1061 1483l125 -93l-1059 -1482zM907 0l2 139q147 118 230 190.5 t136 132t70 100.5t17 89q0 88 -94 88q-56 0 -115 -30q-10 -22 -16 -47l-11 -58l-112 -6l28 238q134 45 277 45q137 0 210 -52t73 -147q0 -100 -93.5 -216.5t-310.5 -281.5h115q58 1 123 15q-2 -1 4 12.5t13 28t7 16.5l17 45l110 -8l-51 -270l-47 -27q-114 4 -137 4h-445z " />
<glyph unicode="&#xbe;" horiz-adv-x="1572" d="M23 584q169 15 273.5 90t104.5 188q0 107 -104 107l-78 -6l-4 104q112 20 173 79t61 146q0 37 -21 57.5t-59 20.5q-50 0 -97 -14l-12 -37l-12 -84l-117 -8l14 229q113 39 250 39q273 0 273 -199q0 -154 -176 -241q65 -12 108 -66.5t43 -120.5q0 -97 -81.5 -183.5 t-220.5 -142.5t-304 -67zM147 -8l1061 1483l125 -93l-1059 -1482zM795 371l553 612l125 -121q-150 -126 -173 -157l-299 -336h160l17 116l215 70l-25 -174l125 6l-23 -149h-122l-5 -27q-2 -15 -3 -32.5t-1 -29.5v-24t0.5 -16t-0.5 -5l80 -6l-18 -104q-123 6 -277 6l-147 -6 l6 96l127 14q0 -1 6.5 22.5t13.5 53t9 41.5l2 17h-256z" />
<glyph unicode="&#xbf;" horiz-adv-x="864" d="M-27 -141q0 221 131 354t334 139l17 164l39 33q56 -8 188 -8l6 -6l-39 -267l-69 -69q-49 6 -113 6q-73 0 -129.5 -50.5t-83.5 -124t-27 -153.5q0 -94 42 -149.5t128 -55.5q79 0 133 33l52 189l114 10l-22 -303q-173 -80 -318 -80q-183 0 -283 87.5t-100 250.5zM485 834 q0 82 47.5 144t118.5 62q56 0 87.5 -38t31.5 -99q0 -83 -47.5 -146t-118.5 -63q-56 0 -87.5 39t-31.5 101z" />
<glyph unicode="&#xc0;" horiz-adv-x="1325" d="M-63 -10l10 149l90 15l108 176l535 1114l233 22l226 -1204l26 -110l109 -19l-31 -143q-92 10 -164 10q-110 0 -214 -2.5t-153 -5.5l-48 -2l12 149l119 19l8 106l-12 103h-371l-51 -131l-23 -78l111 -25l-31 -143q-117 10 -213 10q-78 0 -147 -2.5t-99 -5.5zM500 535 l264 4l-53 481zM502 1688l71 172l471 -213l-73 -131l-148 77z" />
<glyph unicode="&#xc1;" horiz-adv-x="1325" d="M-63 -10l10 149l90 15l108 176l535 1114l233 22l226 -1204l26 -110l109 -19l-31 -143q-92 10 -164 10q-110 0 -214 -2.5t-153 -5.5l-48 -2l12 149l119 19l8 106l-12 103h-371l-51 -131l-23 -78l111 -25l-31 -143q-117 10 -213 10q-78 0 -147 -2.5t-99 -5.5zM500 535 l264 4l-53 481zM578 1626l471 213l71 -172q-284 -82 -323 -94l-146 -78z" />
<glyph unicode="&#xc2;" horiz-adv-x="1325" d="M-63 -10l10 149l90 15l108 176l535 1114l233 22l226 -1204l26 -110l109 -19l-31 -143q-92 10 -164 10q-110 0 -214 -2.5t-153 -5.5l-48 -2l12 149l119 19l8 106l-12 103h-371l-51 -131l-23 -78l111 -25l-31 -143q-117 10 -213 10q-78 0 -147 -2.5t-99 -5.5zM401 1577 l437 272l350 -272l-113 -119l-117 98l-153 86l-180 -86l-150 -98zM500 535l264 4l-53 481z" />
<glyph unicode="&#xc3;" horiz-adv-x="1325" d="M-63 -10l10 149l90 15l108 176l535 1114l233 22l226 -1204l26 -110l109 -19l-31 -143q-92 10 -164 10q-110 0 -214 -2.5t-153 -5.5l-48 -2l12 149l119 19l8 106l-12 103h-371l-51 -131l-23 -78l111 -25l-31 -143q-117 10 -213 10q-78 0 -147 -2.5t-99 -5.5zM449 1593 q5 9 14 23.5t36 51.5t52.5 65.5t58 51.5t58.5 23q44 0 166 -38.5t167 -38.5q23 0 50.5 19.5t44.5 38.5l16 19l92 -57q-5 -8 -14 -22t-35.5 -50t-51.5 -63t-57.5 -49.5t-58.5 -22.5q-45 0 -166.5 39t-167.5 39q-22 0 -51 -21.5t-47 -42.5l-18 -22zM500 535l264 4l-53 481z " />
<glyph unicode="&#xc4;" horiz-adv-x="1325" d="M-63 -10l10 149l90 15l108 176l535 1114l233 22l226 -1204l26 -110l109 -19l-31 -143q-92 10 -164 10q-110 0 -214 -2.5t-153 -5.5l-48 -2l12 149l119 19l8 106l-12 103h-371l-51 -131l-23 -78l111 -25l-31 -143q-117 10 -213 10q-78 0 -147 -2.5t-99 -5.5zM442 1667 q0 73 42.5 120.5t115.5 47.5q55 0 85 -30.5t30 -86.5q0 -74 -41.5 -121t-114.5 -47q-57 0 -87 31.5t-30 85.5zM500 535l264 4l-53 481zM915 1667q0 73 41.5 120.5t114.5 47.5q55 0 85 -30.5t30 -86.5q0 -74 -41.5 -121t-114.5 -47q-57 0 -86 31.5t-29 85.5z" />
<glyph unicode="&#xc5;" horiz-adv-x="1325" d="M-63 -10l10 149l90 15l108 176l535 1114l233 22l226 -1204l26 -110l109 -19l-31 -143q-92 10 -164 10q-110 0 -214 -2.5t-153 -5.5l-48 -2l12 149l119 19l8 106l-12 103h-371l-51 -131l-23 -78l111 -25l-31 -143q-117 10 -213 10q-78 0 -147 -2.5t-99 -5.5zM500 535 l264 4l-53 481zM629 1667q0 103 59.5 166t169.5 63q85 0 128.5 -43t43.5 -120q0 -102 -60 -165t-169 -63q-84 0 -128 44t-44 118zM766 1686q0 -62 53 -62q36 0 56 27t20 63q0 28 -13.5 46t-39.5 18q-38 0 -57 -27.5t-19 -64.5z" />
<glyph unicode="&#xc6;" horiz-adv-x="1812" d="M-63 -10l10 143l104 19q113 131 146 178l661 946l-123 24l33 154q103 -10 197 -10h657q17 0 74 5t105 10l48 5l35 -37l-37 -329l-143 -11q5 82 0 121q0 7 -12 47q-102 11 -158 11h-332q0 -8 -5 -72.5t-5 -83.5l2 -291q16 -4 51 -4h160q18 0 40.5 4.5t36.5 9.5l13 5 l39 131l121 -11q-21 -122 -27 -163l-31 -261l-129 -12v123q-86 12 -125 12h-110q-27 0 -39 -4l2 -254l8 -217h201q65 0 156 17q45 77 49 88q34 89 41 116l139 -10l-84 -360l-43 -37q-184 8 -225 8h-539q-33 0 -73.5 -2.5t-64.5 -5.5l-24 -2l11 143l137 25q14 83 12 112v107 h-430l-98 -141q-3 -3 -9 -14t-16 -30t-20 -34l135 -13l-33 -155q-125 10 -289 10q-42 0 -92 -2.5t-79 -5.5zM582 545l315 4l-2 432l-2 16z" />
<glyph unicode="&#xc7;" horiz-adv-x="1269" d="M70 588q0 152 33.5 286t101.5 244t164.5 189.5t228.5 123.5t289 44q80 0 166 -13t125.5 -22.5t134.5 -34.5l-78 -367l-154 9l13 124q2 15 -13 84q-129 29 -217 29q-91 0 -164.5 -42.5t-121.5 -112.5t-81 -164t-47 -193.5t-14 -204.5q0 -88 15 -160.5t45.5 -128.5 t81.5 -87t120 -31q112 0 250 30q2 4 14 27.5t22 45t11 28.5l21 96l151 4l-34 -352q-244 -62 -406 -68l-31 -92q81 -2 129.5 -42.5t48.5 -110.5q0 -103 -72.5 -155t-183.5 -52q-51 0 -104.5 11.5t-81.5 25.5l51 100q71 -23 107 -23q44 0 74 18.5t30 59.5q0 53 -76 53l-40 -2 l-19 29l43 182q-260 21 -396 185t-136 430z" />
<glyph unicode="&#xc8;" horiz-adv-x="1228" d="M25 -10l10 143l133 25q8 16 24 81t19 95l104 715q24 153 17 227l-125 24l33 154q120 -10 194 -10h539q18 0 75.5 5t105.5 10l48 5l33 -37l-33 -319l-145 -10v121q-11 46 -13 49q-78 8 -155 8h-215q-2 -14 -15.5 -81t-15.5 -85l-43 -293q18 -2 49 -2h109q17 0 39 4.5 t35 9.5l14 5l37 131l123 -11q-21 -129 -27 -170l-31 -260l-133 -12v123q-82 12 -123 12h-57q-48 0 -60 -2l-36 -250q-16 -104 -27 -217h246q66 0 153 17q31 46 52 88q26 68 38 116l140 -10l-82 -360l-43 -37q-184 8 -225 8h-568zM444 1688l72 172l471 -213l-74 -131l-147 77 z" />
<glyph unicode="&#xc9;" horiz-adv-x="1228" d="M25 -10l10 143l133 25q8 16 24 81t19 95l104 715q24 153 17 227l-125 24l33 154q120 -10 194 -10h539q18 0 75.5 5t105.5 10l48 5l33 -37l-33 -319l-145 -10v121q-11 46 -13 49q-78 8 -155 8h-215q-2 -14 -15.5 -81t-15.5 -85l-43 -293q18 -2 49 -2h109q17 0 39 4.5 t35 9.5l14 5l37 131l123 -11q-21 -129 -27 -170l-31 -260l-133 -12v123q-82 12 -123 12h-57q-48 0 -60 -2l-36 -250q-16 -104 -27 -217h246q66 0 153 17q31 46 52 88q26 68 38 116l140 -10l-82 -360l-43 -37q-184 8 -225 8h-568zM500 1626l471 213l71 -172 q-284 -82 -323 -94l-146 -78z" />
<glyph unicode="&#xca;" horiz-adv-x="1228" d="M25 -10l10 143l133 25q8 16 24 81t19 95l104 715q24 153 17 227l-125 24l33 154q120 -10 194 -10h539q18 0 75.5 5t105.5 10l48 5l33 -37l-33 -319l-145 -10v121q-11 46 -13 49q-78 8 -155 8h-215q-2 -14 -15.5 -81t-15.5 -85l-43 -293q18 -2 49 -2h109q17 0 39 4.5 t35 9.5l14 5l37 131l123 -11q-21 -129 -27 -170l-31 -260l-133 -12v123q-82 12 -123 12h-57q-48 0 -60 -2l-36 -250q-16 -104 -27 -217h246q66 0 153 17q31 46 52 88q26 68 38 116l140 -10l-82 -360l-43 -37q-184 8 -225 8h-568zM344 1659l436 272l350 -272l-112 -119 l-117 98l-153 86l-181 -86l-149 -98z" />
<glyph unicode="&#xcb;" horiz-adv-x="1228" d="M25 -10l10 143l133 25q8 16 24 81t19 95l104 715q24 153 17 227l-125 24l33 154q120 -10 194 -10h539q18 0 75.5 5t105.5 10l48 5l33 -37l-33 -319l-145 -10v121q-11 46 -13 49q-78 8 -155 8h-215q-2 -14 -15.5 -81t-15.5 -85l-43 -293q18 -2 49 -2h109q17 0 39 4.5 t35 9.5l14 5l37 131l123 -11q-21 -129 -27 -170l-31 -260l-133 -12v123q-82 12 -123 12h-57q-48 0 -60 -2l-36 -250q-16 -104 -27 -217h246q66 0 153 17q31 46 52 88q26 68 38 116l140 -10l-82 -360l-43 -37q-184 8 -225 8h-568zM385 1667q0 73 42.5 120.5t115.5 47.5 q55 0 84.5 -30.5t29.5 -86.5q0 -74 -41 -121t-114 -47q-57 0 -87 31.5t-30 85.5zM858 1667q0 73 41.5 120.5t114.5 47.5q55 0 84.5 -30.5t29.5 -86.5q0 -74 -41 -121t-114 -47q-57 0 -86 31.5t-29 85.5z" />
<glyph unicode="&#xcc;" horiz-adv-x="811" d="M35 -10l10 143l133 25q1 3 20 77.5t23 98.5l105 715q6 45 9.5 91.5t5 89.5t1.5 46l-125 24l33 154q98 -10 194 -10q102 0 201 2.5t147 5.5l48 2l-15 -166l-131 -12q-34 -106 -43 -166l-102 -715q-7 -45 -11 -95t-6 -96l-2 -46l125 -13l-32 -155q-163 10 -392 10 q-43 0 -92 -2.5t-77 -5.5zM242 1688l71 172l471 -213l-73 -131l-148 77z" />
<glyph unicode="&#xcd;" horiz-adv-x="811" d="M35 -10l10 143l133 25q1 3 20 77.5t23 98.5l105 715q6 45 9.5 91.5t5 89.5t1.5 46l-125 24l33 154q98 -10 194 -10q102 0 201 2.5t147 5.5l48 2l-15 -166l-131 -12q-34 -106 -43 -166l-102 -715q-7 -45 -11 -95t-6 -96l-2 -46l125 -13l-32 -155q-163 10 -392 10 q-43 0 -92 -2.5t-77 -5.5zM332 1626l471 213l71 -172q-284 -82 -323 -94l-145 -78z" />
<glyph unicode="&#xce;" horiz-adv-x="811" d="M35 -10l10 143l133 25q1 3 20 77.5t23 98.5l105 715q6 45 9.5 91.5t5 89.5t1.5 46l-125 24l33 154q98 -10 194 -10q102 0 201 2.5t147 5.5l48 2l-15 -166l-131 -12q-34 -106 -43 -166l-102 -715q-7 -45 -11 -95t-6 -96l-2 -46l125 -13l-32 -155q-163 10 -392 10 q-43 0 -92 -2.5t-77 -5.5zM170 1638l436 273l350 -273l-112 -118l-117 98l-154 86l-180 -86l-149 -98z" />
<glyph unicode="&#xd0;" horiz-adv-x="1470" d="M25 -10l10 143l133 25q39 135 43 176l47 325h-149l20 150h152l34 240q7 45 11.5 102t5.5 91v34l-125 24l33 154q102 -10 198 -10q46 0 206.5 10t207.5 10q199 0 337.5 -78t205.5 -214.5t67 -321.5q0 -186 -53 -342.5t-154 -272.5t-256.5 -181.5t-349.5 -65.5 q-65 0 -216.5 6t-211.5 6q-43 0 -92 -2.5t-77 -5.5zM512 164q54 -6 123 -6q111 0 198 43t140 111.5t88 164t48 190t13 199.5q0 93 -17 168t-53.5 134.5t-99 92.5t-147.5 33q-37 0 -131 -16q-1 -9 -15 -79t-16 -89l-45 -301h170l-33 -150h-157l-39 -264q-18 -113 -27 -231z " />
<glyph unicode="&#xd1;" horiz-adv-x="1599" d="M25 -10l10 143l133 25q8 23 24 86t19 90l104 715q17 108 17 227l-123 24l31 154q98 -10 196 -10h211l31 -41q106 -258 129 -303l340 -629l84 578q14 106 14 227l-123 24l33 154l199 -10q72 0 155.5 2.5t130.5 5.5l48 2l-15 -166l-131 -12q-31 -96 -41 -166l-104 -715 l-58 -395h-280l-500 922l-78 -527q-6 -45 -9.5 -99t-5 -94t-1.5 -44l125 -13l-33 -155q-105 10 -334 10q-43 0 -92.5 -2.5t-77.5 -5.5zM602 1593q5 9 14 23.5t36 51.5t52.5 65.5t58 51.5t58.5 23q44 0 166.5 -38.5t167.5 -38.5q23 0 50.5 19.5t44.5 38.5l16 19l92 -57 q-5 -8 -14 -22t-35.5 -50t-51.5 -63t-57.5 -49.5t-58.5 -22.5q-45 0 -166.5 39t-167.5 39q-22 0 -51 -21.5t-48 -42.5l-18 -22z" />
<glyph unicode="&#xd2;" horiz-adv-x="1529" d="M72 598q0 194 61.5 359t170.5 280.5t263 180.5t334 65q286 0 453.5 -173t167.5 -466q0 -193 -62 -357.5t-171 -280t-263 -180.5t-334 -65q-286 0 -453 173t-167 464zM434 555q0 -395 281 -395q116 0 201.5 52t138 149.5t77.5 228.5t25 297q0 200 -68.5 298.5t-209.5 98.5 q-116 0 -202.5 -52.5t-139 -150t-78 -229t-25.5 -297.5zM580 1688l71 172l471 -213l-73 -131l-148 77z" />
<glyph unicode="&#xd3;" horiz-adv-x="1529" d="M72 598q0 194 61.5 359t170.5 280.5t263 180.5t334 65q286 0 453.5 -173t167.5 -466q0 -193 -62 -357.5t-171 -280t-263 -180.5t-334 -65q-286 0 -453 173t-167 464zM434 555q0 -395 281 -395q116 0 201.5 52t138 149.5t77.5 228.5t25 297q0 200 -68.5 298.5t-209.5 98.5 q-116 0 -202.5 -52.5t-139 -150t-78 -229t-25.5 -297.5zM653 1647l471 213l72 -172q-285 -83 -324 -95l-145 -77z" />
<glyph unicode="&#xd4;" horiz-adv-x="1529" d="M72 598q0 194 61.5 359t170.5 280.5t263 180.5t334 65q286 0 453.5 -173t167.5 -466q0 -193 -62 -357.5t-171 -280t-263 -180.5t-334 -65q-286 0 -453 173t-167 464zM434 555q0 -395 281 -395q116 0 201.5 52t138 149.5t77.5 228.5t25 297q0 200 -68.5 298.5t-209.5 98.5 q-116 0 -202.5 -52.5t-139 -150t-78 -229t-25.5 -297.5zM500 1638l436 273l350 -273l-112 -118l-117 98l-154 86l-180 -86l-150 -98z" />
<glyph unicode="&#xd5;" horiz-adv-x="1529" d="M72 598q0 194 61.5 359t170.5 280.5t263 180.5t334 65q286 0 453.5 -173t167.5 -466q0 -193 -62 -357.5t-171 -280t-263 -180.5t-334 -65q-286 0 -453 173t-167 464zM434 555q0 -395 281 -395q116 0 201.5 52t138 149.5t77.5 228.5t25 297q0 200 -68.5 298.5t-209.5 98.5 q-116 0 -202.5 -52.5t-139 -150t-78 -229t-25.5 -297.5zM524 1593q5 9 14 23.5t36 51.5t52.5 65.5t58 51.5t58.5 23q44 0 166.5 -38.5t167.5 -38.5q23 0 50.5 19.5t44.5 38.5l16 19l92 -57q-5 -8 -14 -22t-35.5 -50t-51.5 -63t-57.5 -49.5t-58.5 -22.5q-45 0 -166.5 39 t-167.5 39q-22 0 -51 -21.5t-48 -42.5l-18 -22z" />
<glyph unicode="&#xd7;" horiz-adv-x="1138" d="M80 188l346 308l-260 303l160 141l262 -301l340 303l127 -145l-342 -301l258 -295l-166 -148l-258 299l-346 -303z" />
<glyph unicode="&#xd8;" horiz-adv-x="1521" d="M72 598q0 194 62 359t171.5 280.5t263.5 180.5t334 65q153 0 281 -56l190 289l109 -59l-193 -293q108 -82 165.5 -215t57.5 -303q0 -194 -62 -359t-171.5 -280.5t-264 -180.5t-335.5 -65q-149 0 -277 53l-194 -295l-105 60l195 297q-110 82 -168.5 215.5t-58.5 306.5z M424 557q0 -145 37 -235l592 903q-68 59 -181 59q-117 0 -204 -52t-140 -149.5t-78.5 -228.5t-25.5 -297zM535 215q67 -55 174 -55q119 0 206.5 51.5t140.5 149t78 227.5t25 297q0 136 -35 229z" />
<glyph unicode="&#xd9;" horiz-adv-x="1554" d="M168 1300l33 154q98 -10 194 -10q102 0 203.5 2.5t151.5 5.5l51 2l-15 -166l-131 -12q-34 -99 -41 -166l-86 -578q-21 -143 42 -236t198 -93q148 0 223.5 83.5t98.5 245.5l75 517q6 45 9.5 92t5.5 90.5t2 44.5l-125 24l33 154q98 -10 196 -10q102 0 188.5 2.5t121.5 5.5 l36 2l-14 -166l-131 -12q-8 -24 -22.5 -80.5t-18.5 -85.5l-82 -561q-39 -268 -212.5 -424t-453.5 -156q-281 0 -406.5 155.5t-86.5 424.5l71 500q23 145 17 227zM633 1688l72 172l471 -213l-74 -131l-148 77z" />
<glyph unicode="&#xda;" horiz-adv-x="1554" d="M168 1300l33 154q98 -10 194 -10q102 0 203.5 2.5t151.5 5.5l51 2l-15 -166l-131 -12q-34 -99 -41 -166l-86 -578q-21 -143 42 -236t198 -93q148 0 223.5 83.5t98.5 245.5l75 517q6 45 9.5 92t5.5 90.5t2 44.5l-125 24l33 154q98 -10 196 -10q102 0 188.5 2.5t121.5 5.5 l36 2l-14 -166l-131 -12q-8 -24 -22.5 -80.5t-18.5 -85.5l-82 -561q-39 -268 -212.5 -424t-453.5 -156q-281 0 -406.5 155.5t-86.5 424.5l71 500q23 145 17 227zM709 1626l471 213l71 -172q-284 -82 -323 -94l-146 -78z" />
<glyph unicode="&#xdb;" horiz-adv-x="1554" d="M168 1300l33 154q98 -10 194 -10q102 0 203.5 2.5t151.5 5.5l51 2l-15 -166l-131 -12q-34 -99 -41 -166l-86 -578q-21 -143 42 -236t198 -93q148 0 223.5 83.5t98.5 245.5l75 517q6 45 9.5 92t5.5 90.5t2 44.5l-125 24l33 154q98 -10 196 -10q102 0 188.5 2.5t121.5 5.5 l36 2l-14 -166l-131 -12q-8 -24 -22.5 -80.5t-18.5 -85.5l-82 -561q-39 -268 -212.5 -424t-453.5 -156q-281 0 -406.5 155.5t-86.5 424.5l71 500q23 145 17 227zM535 1638l436 273l350 -273l-113 -118l-116 98l-154 86l-180 -86l-150 -98z" />
<glyph unicode="&#xdc;" horiz-adv-x="1554" d="M168 1300l33 154q98 -10 194 -10q102 0 203.5 2.5t151.5 5.5l51 2l-15 -166l-131 -12q-34 -99 -41 -166l-86 -578q-21 -143 42 -236t198 -93q148 0 223.5 83.5t98.5 245.5l75 517q6 45 9.5 92t5.5 90.5t2 44.5l-125 24l33 154q98 -10 196 -10q102 0 188.5 2.5t121.5 5.5 l36 2l-14 -166l-131 -12q-8 -24 -22.5 -80.5t-18.5 -85.5l-82 -561q-39 -268 -212.5 -424t-453.5 -156q-281 0 -406.5 155.5t-86.5 424.5l71 500q23 145 17 227zM575 1667q0 73 42.5 120.5t115.5 47.5q55 0 85 -30.5t30 -86.5q0 -74 -41.5 -121t-114.5 -47q-57 0 -87 31.5 t-30 85.5zM1049 1667q0 73 41 120.5t114 47.5q55 0 85 -30.5t30 -86.5q0 -74 -41.5 -121t-114.5 -47q-57 0 -85.5 31.5t-28.5 85.5z" />
<glyph unicode="&#xde;" horiz-adv-x="1198" d="M20 -10l11 143l135 25q38 125 45 176l104 715q15 109 15 227l-125 24l33 154q102 -10 196 -10q99 0 196 2.5t144 5.5l47 2l-14 -166l-133 -12q-14 -35 -33 -117q136 8 176 8q190 0 301 -98t111 -272q0 -116 -46.5 -212t-125 -157.5t-180 -95t-213.5 -33.5h-148 q-2 -35 -3.5 -83.5t-2.5 -57.5l127 -13l-33 -155q-160 10 -383 10q-42 0 -92 -2.5t-79 -5.5zM537 467h32q157 0 248.5 83.5t91.5 240.5q0 105 -56 156.5t-175 51.5q-37 0 -64 -2z" />
<glyph unicode="&#xdf;" horiz-adv-x="1167" d="M-430 -475l90 225q74 -12 117 -12q138 0 200 51q18 15 38 86t32 131q24 121 47 254t38 229.5t45 294t50 328.5q21 134 111 241t225 165.5t289 58.5q315 0 315 -225q0 -67 -36.5 -126.5t-88 -105t-103 -90t-88 -102t-36.5 -121.5q0 -37 30.5 -80.5t74 -87t86.5 -91.5 t73.5 -110t30.5 -125q0 -157 -95.5 -253.5t-258.5 -96.5q-171 0 -346 64l71 235q55 -39 86 -59t80.5 -43t81.5 -23q38 0 60 22t22 60q0 37 -26.5 80t-64 86.5t-75 92.5t-64 117t-26.5 142q0 63 33 126.5t79.5 114.5t93.5 99.5t80 99.5t33 97q0 47 -29 66.5t-93 19.5 q-56 0 -116 -18t-77 -42q-32 -45 -82 -305q-36 -191 -86 -570.5t-74 -455.5q-32 -103 -87.5 -183.5t-119 -130t-140 -81t-146 -43.5t-141.5 -12q-61 0 -113 6z" />
<glyph unicode="&#xe0;" d="M39 281q0 173 68 351t180 295t227 117q31 0 84 -8t111 -18.5t77 -13.5l166 40l82 -57q-55 -218 -88 -408.5t-43 -406.5l160 -14l-8 -109l-412 -86l-72 37q109 280 134 440q-98 -214 -229 -345.5t-273 -131.5q-56 0 -94 47.5t-54 116.5t-16 154zM326 352q0 -62 11 -93.5 t44 -31.5q34 0 80.5 45t91.5 118t84 176t57 208q-131 53 -215 53q-35 0 -71 -68t-59 -179.5t-23 -227.5zM395 1391l94 155l412 -270l-94 -119l-133 100z" />
<glyph unicode="&#xe1;" d="M39 281q0 173 68 351t180 295t227 117q31 0 84 -8t111 -18.5t77 -13.5l166 40l82 -57q-55 -218 -88 -408.5t-43 -406.5l160 -14l-8 -109l-412 -86l-72 37q109 280 134 440q-98 -214 -229 -345.5t-273 -131.5q-56 0 -94 47.5t-54 116.5t-16 154zM326 352q0 -62 11 -93.5 t44 -31.5q34 0 80.5 45t91.5 118t84 176t57 208q-131 53 -215 53q-35 0 -71 -68t-59 -179.5t-23 -227.5zM475 1276l412 270l94 -155q-244 -116 -279 -134l-133 -100z" />
<glyph unicode="&#xe2;" d="M39 281q0 173 68 351t180 295t227 117q31 0 84 -8t111 -18.5t77 -13.5l166 40l82 -57q-55 -218 -88 -408.5t-43 -406.5l160 -14l-8 -109l-412 -86l-72 37q109 280 134 440q-98 -214 -229 -345.5t-273 -131.5q-56 0 -94 47.5t-54 116.5t-16 154zM283 1274l436 293 l350 -293l-113 -119l-116 109l-154 92q-149 -78 -180 -92l-150 -109zM326 352q0 -62 11 -93.5t44 -31.5q34 0 80.5 45t91.5 118t84 176t57 208q-131 53 -215 53q-35 0 -71 -68t-59 -179.5t-23 -227.5z" />
<glyph unicode="&#xe3;" d="M39 281q0 173 68 351t180 295t227 117q31 0 84 -8t111 -18.5t77 -13.5l166 40l82 -57q-55 -218 -88 -408.5t-43 -406.5l160 -14l-8 -109l-412 -86l-72 37q109 280 134 440q-98 -214 -229 -345.5t-273 -131.5q-56 0 -94 47.5t-54 116.5t-16 154zM326 352q0 -62 11 -93.5 t44 -31.5q34 0 80.5 45t91.5 118t84 176t57 208q-131 53 -215 53q-35 0 -71 -68t-59 -179.5t-23 -227.5zM338 1266q5 9 13.5 23.5t34 51.5t49.5 65.5t55 51.5t55 23q42 0 158.5 -39t158.5 -39q22 0 47.5 19.5t40.5 39.5l15 19l88 -58q-5 -8 -13.5 -22t-33 -49.5t-48 -62.5 t-54 -49.5t-54.5 -22.5q-43 0 -159 38.5t-159 38.5q-21 0 -48.5 -21.5t-44.5 -42.5l-17 -22z" />
<glyph unicode="&#xe4;" d="M39 281q0 173 68 351t180 295t227 117q31 0 84 -8t111 -18.5t77 -13.5l166 40l82 -57q-55 -218 -88 -408.5t-43 -406.5l160 -14l-8 -109l-412 -86l-72 37q109 280 134 440q-98 -214 -229 -345.5t-273 -131.5q-56 0 -94 47.5t-54 116.5t-16 154zM311 1317q0 73 43.5 120.5 t116.5 47.5q55 0 85 -30.5t30 -86.5q0 -74 -42 -121t-116 -47q-56 0 -86.5 31.5t-30.5 85.5zM326 352q0 -62 11 -93.5t44 -31.5q34 0 80.5 45t91.5 118t84 176t57 208q-131 53 -215 53q-35 0 -71 -68t-59 -179.5t-23 -227.5zM784 1317q0 73 42 120.5t116 47.5q55 0 85 -30.5 t30 -86.5q0 -74 -42 -121t-116 -47q-56 0 -85.5 31.5t-29.5 85.5z" />
<glyph unicode="&#xe5;" d="M39 281q0 173 68 351t180 295t227 117q31 0 84 -8t111 -18.5t77 -13.5l166 40l82 -57q-55 -218 -88 -408.5t-43 -406.5l160 -14l-8 -109l-412 -86l-72 37q109 280 134 440q-98 -214 -229 -345.5t-273 -131.5q-56 0 -94 47.5t-54 116.5t-16 154zM326 352q0 -62 11 -93.5 t44 -31.5q34 0 80.5 45t91.5 118t84 176t57 208q-131 53 -215 53q-35 0 -71 -68t-59 -179.5t-23 -227.5zM467 1329q0 103 60 166.5t169 63.5q84 0 128 -43.5t44 -120.5q0 -102 -60 -165t-169 -63q-84 0 -128 44t-44 118zM604 1348q0 -62 53 -62q36 0 56 27t20 63 q0 28 -13.5 46t-39.5 18q-38 0 -57 -27.5t-19 -64.5z" />
<glyph unicode="&#xe6;" horiz-adv-x="1429" d="M39 281q0 129 41.5 266.5t107 246.5t153 179.5t173.5 70.5q21 0 52 -3.5t79 -12t84.5 -15.5t107.5 -21t109 -21q85 59 156 59q330 0 330 -182q0 -162 -150.5 -282.5t-411.5 -166.5q-4 -31 -4 -90q0 -77 30 -113t81 -36q62 0 145 49.5t146 114.5l92 -74 q-90 -125 -230 -206t-268 -81q-113 0 -187.5 66t-84.5 202q-184 -268 -385 -268q-82 0 -124 92.5t-42 225.5zM324 350q0 -63 11 -95t44 -32q46 0 110.5 75.5t123.5 207t81 270.5q-127 55 -215 55q-35 0 -71.5 -69.5t-60 -182.5t-23.5 -229zM889 526q128 32 205 108t77 154 q0 30 -25 45t-83 15q-50 0 -98 -93t-76 -229z" />
<glyph unicode="&#xe7;" horiz-adv-x="794" d="M14 276q0 119 45 255.5t112 245t151.5 181t158.5 72.5q140 0 277 -18l51 -80l-72 -334l-112 6v193q-85 32 -156 32q-39 0 -79 -80t-65.5 -203t-25.5 -241q0 -135 102 -135q96 0 252 156l97 -82q-71 -105 -173.5 -178t-211.5 -95l-31 -92q81 -2 129.5 -42.5t48.5 -110.5 q0 -103 -72.5 -155t-183.5 -52q-51 0 -104.5 11.5t-81.5 25.5l51 100q71 -23 106 -23q44 0 74.5 18.5t30.5 59.5q0 53 -76 53l-41 -2l-18 29l41 176q-107 15 -165.5 95t-58.5 214z" />
<glyph unicode="&#xe8;" horiz-adv-x="864" d="M14 276q0 120 51 256.5t127 245t169 180.5t171 72q330 0 330 -182q0 -164 -149 -284.5t-412 -166.5q-4 -31 -4 -88q0 -76 30 -111.5t81 -35.5q60 0 141.5 51.5t144.5 116.5l94 -82q-90 -124 -229.5 -204.5t-267.5 -80.5q-123 0 -200 76.5t-77 236.5zM309 1391l94 155 l412 -270l-94 -119l-133 100zM319 528q128 32 204.5 107.5t76.5 152.5q0 58 -108 58q-50 0 -97.5 -92t-75.5 -226z" />
<glyph unicode="&#xe9;" horiz-adv-x="864" d="M14 276q0 120 51 256.5t127 245t169 180.5t171 72q330 0 330 -182q0 -164 -149 -284.5t-412 -166.5q-4 -31 -4 -88q0 -76 30 -111.5t81 -35.5q60 0 141.5 51.5t144.5 116.5l94 -82q-90 -124 -229.5 -204.5t-267.5 -80.5q-123 0 -200 76.5t-77 236.5zM319 528 q128 32 204.5 107.5t76.5 152.5q0 58 -108 58q-50 0 -97.5 -92t-75.5 -226zM389 1276l412 270l94 -155q-244 -116 -279 -134l-133 -100z" />
<glyph unicode="&#xea;" horiz-adv-x="864" d="M14 276q0 120 51 256.5t127 245t169 180.5t171 72q330 0 330 -182q0 -164 -149 -284.5t-412 -166.5q-4 -31 -4 -88q0 -76 30 -111.5t81 -35.5q60 0 141.5 51.5t144.5 116.5l94 -82q-90 -124 -229.5 -204.5t-267.5 -80.5q-123 0 -200 76.5t-77 236.5zM199 1274l436 293 l350 -293l-113 -119l-116 109l-154 92q-149 -78 -180 -92l-150 -109zM319 528q128 32 204.5 107.5t76.5 152.5q0 58 -108 58q-50 0 -97.5 -92t-75.5 -226z" />
<glyph unicode="&#xeb;" horiz-adv-x="864" d="M14 276q0 120 51 256.5t127 245t169 180.5t171 72q330 0 330 -182q0 -164 -149 -284.5t-412 -166.5q-4 -31 -4 -88q0 -76 30 -111.5t81 -35.5q60 0 141.5 51.5t144.5 116.5l94 -82q-90 -124 -229.5 -204.5t-267.5 -80.5q-123 0 -200 76.5t-77 236.5zM246 1317 q0 73 43.5 120.5t116.5 47.5q55 0 84.5 -30.5t29.5 -86.5q0 -74 -42 -121t-116 -47q-56 0 -86 31.5t-30 85.5zM319 528q128 32 204.5 107.5t76.5 152.5q0 58 -108 58q-50 0 -97.5 -92t-75.5 -226zM719 1317q0 73 42 120.5t116 47.5q55 0 84.5 -30.5t29.5 -86.5 q0 -74 -41.5 -121t-115.5 -47q-56 0 -85.5 31.5t-29.5 85.5z" />
<glyph unicode="&#xec;" horiz-adv-x="624" d="M70 0q120 450 145 842l-141 8v106l389 88l80 -57q-42 -166 -83 -391t-63 -426l160 -12l-8 -109l-410 -86zM102 1391l95 155l411 -270l-94 -119l-133 100z" />
<glyph unicode="&#xed;" horiz-adv-x="624" d="M70 0q120 450 145 842l-141 8v106l389 88l80 -57q-42 -166 -83 -391t-63 -426l160 -12l-8 -109l-410 -86zM182 1276l412 270l94 -155q-243 -116 -278 -134l-134 -100z" />
<glyph unicode="&#xee;" horiz-adv-x="624" d="M-10 1274l436 293l350 -293l-112 -119l-117 109l-154 92q-149 -78 -180 -92l-150 -109zM70 0q120 450 145 842l-141 8v106l389 88l80 -57q-42 -166 -83 -391t-63 -426l160 -12l-8 -109l-410 -86z" />
<glyph unicode="&#xf0;" horiz-adv-x="993" d="M33 344q0 133 47.5 259.5t125 219.5t182 150t212.5 57q18 0 80 -4q-19 119 -51 199l-242 -115l-55 113l241 116q-12 23 -28.5 48.5t-27 41t-31.5 44.5t-29 40l147 64q76 -70 144 -154l215 105l53 -117l-195 -94q154 -243 154 -526q0 -107 -23 -219.5t-72 -222 t-118 -195.5t-169.5 -138.5t-217.5 -52.5q-342 0 -342 381zM330 367q0 -48 4.5 -83.5t15 -67t31.5 -48t51 -16.5q66 0 118.5 56.5t83 151t46.5 208.5t16 239q0 41 -2 59q-30 6 -49 6q-83 0 -146.5 -45.5t-99 -120.5t-52.5 -160.5t-17 -178.5z" />
<glyph unicode="&#xf1;" horiz-adv-x="1210" d="M55 0q139 520 160 842l-139 8v106l391 88l80 -57q-77 -230 -115 -401q33 71 69 132.5t84.5 123t100.5 105t117.5 70.5t134.5 27q77 0 121.5 -48t44.5 -122q0 -95 -48 -340t-59 -362l144 -14l-8 -109l-412 -86l-74 37q160 541 160 690q0 90 -45 90q-66 0 -149 -110.5 t-147.5 -269.5t-88.5 -304q-7 -40 -15 -96l-237 -37zM367 1266q5 9 13.5 23.5t34 51.5t49.5 65.5t54.5 51.5t54.5 23q42 0 159 -39t159 -39q22 0 47.5 19.5t39.5 39.5l15 19l88 -58q-5 -8 -13 -22t-33 -49.5t-48 -62.5t-53.5 -49.5t-54.5 -22.5q-43 0 -159 38.5t-159 38.5 q-21 0 -48.5 -21.5t-44.5 -42.5l-17 -22z" />
<glyph unicode="&#xf2;" horiz-adv-x="995" d="M31 342q0 143 47.5 273.5t127 224t189.5 149t230 55.5q165 0 250.5 -96t85.5 -282q0 -191 -79.5 -353t-216.5 -256t-298 -94q-163 0 -249.5 97t-86.5 282zM330 350q0 -93 28 -144.5t76 -51.5q109 0 168.5 131t59.5 372q0 92 -28 144.5t-75 52.5q-110 0 -169.5 -131 t-59.5 -373zM352 1391l94 155l412 -270l-94 -119l-133 100z" />
<glyph unicode="&#xf3;" horiz-adv-x="995" d="M31 342q0 143 47.5 273.5t127 224t189.5 149t230 55.5q165 0 250.5 -96t85.5 -282q0 -191 -79.5 -353t-216.5 -256t-298 -94q-163 0 -249.5 97t-86.5 282zM330 350q0 -93 28 -144.5t76 -51.5q109 0 168.5 131t59.5 372q0 92 -28 144.5t-75 52.5q-110 0 -169.5 -131 t-59.5 -373zM412 1276l411 270l95 -155q-244 -116 -279 -134l-133 -100z" />
<glyph unicode="&#xf4;" horiz-adv-x="995" d="M31 342q0 143 47.5 273.5t127 224t189.5 149t230 55.5q165 0 250.5 -96t85.5 -282q0 -191 -79.5 -353t-216.5 -256t-298 -94q-163 0 -249.5 97t-86.5 282zM219 1274l436 293l351 -293l-113 -119l-117 109l-153 92q-144 -76 -181 -92l-149 -109zM330 350q0 -93 28 -144.5 t76 -51.5q109 0 168.5 131t59.5 372q0 92 -28 144.5t-75 52.5q-110 0 -169.5 -131t-59.5 -373z" />
<glyph unicode="&#xf5;" horiz-adv-x="995" d="M31 342q0 143 47.5 273.5t127 224t189.5 149t230 55.5q165 0 250.5 -96t85.5 -282q0 -191 -79.5 -353t-216.5 -256t-298 -94q-163 0 -249.5 97t-86.5 282zM274 1266q5 9 13.5 23.5t34 51.5t49.5 65.5t55 51.5t55 23q42 0 159 -39t159 -39q22 0 47.5 19.5t39.5 39.5l15 19 l88 -58q-5 -8 -13.5 -22t-33 -49.5t-48 -62.5t-54 -49.5t-54.5 -22.5q-43 0 -158.5 38.5t-158.5 38.5q-21 0 -48.5 -21.5t-44.5 -42.5l-18 -22zM330 350q0 -93 28 -144.5t76 -51.5q109 0 168.5 131t59.5 372q0 92 -28 144.5t-75 52.5q-110 0 -169.5 -131t-59.5 -373z" />
<glyph unicode="&#xf7;" horiz-adv-x="1210" d="M102 416l31 215h932l-29 -205zM377 119q0 71 50.5 132.5t117.5 61.5q135 0 135 -133q0 -71 -51.5 -131.5t-118.5 -60.5q-65 0 -99 33.5t-34 97.5zM485 862q0 72 50.5 133.5t117.5 61.5q135 0 135 -133q0 -71 -51.5 -132t-118.5 -61q-65 0 -99 33.5t-34 97.5z" />
<glyph unicode="&#xf8;" horiz-adv-x="1007" d="M25 -154l118 187q-112 88 -112 319q0 128 45 253t121.5 222t188.5 157t237 60q89 0 153 -24l135 213l107 -57l-139 -220q94 -94 94 -301q0 -128 -45 -253t-121.5 -222t-188.5 -157t-237 -60q-65 0 -131 17l-121 -191zM327 337q-1 -15 1 -15l315 493q-23 41 -68 41 q-65 0 -115 -49.5t-77.5 -127.5t-41 -161.5t-13.5 -165.5zM375 172q20 -20 53 -20q63 0 112.5 47t77.5 122.5t42 156.5t16 163z" />
<glyph unicode="&#xf9;" horiz-adv-x="1177" d="M45 850v106l391 88l82 -57q-151 -520 -151 -670q0 -90 43 -90q77 0 172 140q68 102 126.5 251t88.5 289q11 62 16 101l236 36l71 -36q-77 -290 -118.5 -481t-53.5 -355l160 -14l-8 -109l-412 -86l-72 37q111 294 132 438q-40 -91 -88.5 -169t-112.5 -150t-145 -114 t-169 -42q-77 0 -120 47t-43 121q0 92 54 337t62 374zM410 1391l94 155l411 -270l-94 -119l-133 100z" />
<glyph unicode="&#xfa;" horiz-adv-x="1177" d="M45 850v106l391 88l82 -57q-151 -520 -151 -670q0 -90 43 -90q77 0 172 140q68 102 126.5 251t88.5 289q11 62 16 101l236 36l71 -36q-77 -290 -118.5 -481t-53.5 -355l160 -14l-8 -109l-412 -86l-72 37q111 294 132 438q-40 -91 -88.5 -169t-112.5 -150t-145 -114 t-169 -42q-77 0 -120 47t-43 121q0 92 54 337t62 374zM489 1276l412 270l94 -155q-243 -116 -278 -134l-133 -100z" />
<glyph unicode="&#xfb;" horiz-adv-x="1177" d="M45 850v106l391 88l82 -57q-151 -520 -151 -670q0 -90 43 -90q77 0 172 140q68 102 126.5 251t88.5 289q11 62 16 101l236 36l71 -36q-77 -290 -118.5 -481t-53.5 -355l160 -14l-8 -109l-412 -86l-72 37q111 294 132 438q-40 -91 -88.5 -169t-112.5 -150t-145 -114 t-169 -42q-77 0 -120 47t-43 121q0 92 54 337t62 374zM297 1274l436 293l350 -293l-112 -119l-117 109l-154 92q-149 -78 -180 -92l-149 -109z" />
<glyph unicode="&#xfc;" horiz-adv-x="1177" d="M45 850v106l391 88l82 -57q-151 -520 -151 -670q0 -90 43 -90q77 0 172 140q68 102 126.5 251t88.5 289q11 62 16 101l236 36l71 -36q-77 -290 -118.5 -481t-53.5 -355l160 -14l-8 -109l-412 -86l-72 37q111 294 132 438q-40 -91 -88.5 -169t-112.5 -150t-145 -114 t-169 -42q-77 0 -120 47t-43 121q0 92 54 337t62 374zM319 1317q0 73 43.5 120.5t116.5 47.5q55 0 85 -30.5t30 -86.5q0 -74 -42 -121t-116 -47q-56 0 -86.5 31.5t-30.5 85.5zM793 1317q0 73 41.5 120.5t115.5 47.5q55 0 85 -30.5t30 -86.5q0 -74 -42 -121t-116 -47 q-56 0 -85 31.5t-29 85.5z" />
<glyph unicode="&#xfe;" horiz-adv-x="1046" d="M-10 -530q80 283 160 928.5t106 985.5l-141 19l-6 106l403 68l70 -57q-139 -717 -158 -830q92 161 203.5 254.5t230.5 93.5q82 0 124 -92t42 -225q0 -172 -68.5 -350.5t-180.5 -296t-226 -117.5q-39 0 -203 29q-39 -355 -53 -516l-234 -37zM369 225q117 -55 215 -55 q35 0 71.5 69.5t60 182.5t23.5 229q0 63 -11 95t-44 32q-34 0 -81.5 -46t-93.5 -120t-85 -178t-55 -209z" />
<glyph unicode="&#xff;" horiz-adv-x="1103" d="M-10 -426l88 244q170 -78 317 -78q69 0 131 14t86 37q35 31 35 199q-1 18 45 191t53 255q-31 -72 -67.5 -136t-85.5 -127t-102.5 -108.5t-120 -73.5t-136.5 -28q-77 0 -120 47t-43 121q0 92 54 337t62 374l-141 8v106l391 88l82 -57q-151 -520 -151 -670q0 -90 43 -90 q51 0 107 57t105 148.5t90 197t70 212.5l-141 8v106l358 88l80 -57q-78 -285 -166 -956q-15 -119 -62 -211.5t-108.5 -148t-141 -91t-152 -48.5t-148.5 -13q-106 0 -188 16t-123 39zM297 1317q0 73 43.5 120.5t116.5 47.5q55 0 84.5 -30.5t29.5 -86.5q0 -74 -41.5 -121 t-115.5 -47q-56 0 -86.5 31.5t-30.5 85.5zM770 1317q0 73 42 120.5t116 47.5q55 0 84.5 -30.5t29.5 -86.5q0 -74 -41.5 -121t-115.5 -47q-56 0 -85.5 31.5t-29.5 85.5z" />
<glyph unicode="&#x152;" horiz-adv-x="2062" d="M72 598q0 194 62 359t171.5 280.5t263.5 180.5t334 65q130 0 225 -33q129 -6 146 -6h532q17 0 74 5t106 10l48 5l34 -37l-32 -319l-146 -10q5 82 0 121q-10 42 -14 49q-74 8 -154 8h-219q-29 -136 -33 -166l-43 -293q20 -2 52 -2h112q17 0 39 4.5t36 9.5l13 5l39 131 l121 -11q-21 -122 -27 -163l-30 -261l-129 -12v123q-84 12 -125 12h-62q-47 0 -63 -2l-37 -256q-16 -125 -25 -217h248q69 0 156 17q34 50 49 88q34 89 41 116l139 -10l-84 -360l-43 -37q-184 8 -225 8h-559l-143 -6q-109 -33 -240 -33q-284 0 -446 172.5t-162 464.5z M424 557q0 -397 285 -397q73 0 128.5 16t99 50.5t74.5 74t68 100.5l101 697q-26 44 -39.5 65t-40 49.5t-54 40.5t-71.5 21.5t-103 9.5q-117 0 -204 -52t-140 -149.5t-78.5 -228.5t-25.5 -297z" />
<glyph unicode="&#x153;" horiz-adv-x="1490" d="M31 352q0 128 45 253t121.5 222t188.5 157t237 60q217 0 299 -145q131 131 237 131q330 0 330 -182q0 -162 -150 -282.5t-411 -166.5q-4 -31 -4 -90q0 -149 110 -149q62 0 145 49.5t146 114.5l92 -74q-90 -125 -229.5 -206t-267.5 -81q-154 0 -224 109 q-144 -109 -315 -109q-183 0 -266.5 98t-83.5 291zM328 352q0 -200 100 -200q65 0 115 49t78 127t41.5 161.5t13.5 165.5q0 38 -4.5 71t-15 63.5t-31.5 48.5t-50 18q-65 0 -115 -49.5t-77.5 -127.5t-41 -161.5t-13.5 -165.5zM946 526q128 32 205.5 108.5t77.5 153.5 q0 60 -109 60q-50 0 -98 -93t-76 -229z" />
<glyph unicode="&#x178;" horiz-adv-x="1363" d="M104 1311l31 143q104 -10 178 -10q106 0 212 2.5t159 5.5l53 2l-12 -149l-104 -19q4 -67 14 -106l147 -424l285 452q4 7 8 26.5t6 35.5l2 16l-79 25l30 143q125 -10 219 -10q76 0 150 2.5t109 5.5l36 2l-12 -149l-119 -15q-108 -110 -149 -176l-398 -614l-14 -105 q-6 -45 -9.5 -96t-5 -94t-1.5 -47l125 -13l-33 -155q-162 10 -391 10q-43 0 -92 -2.5t-77 -5.5l-28 -2l10 143l133 25q1 3 20 77.5t23 98.5l27 186l-260 662q-8 22 -27.5 49.5t-35.5 44.5l-15 16zM508 1667q0 73 42.5 120.5t115.5 47.5q55 0 84.5 -30.5t29.5 -86.5 q0 -74 -41 -121t-114 -47q-57 0 -87 31.5t-30 85.5zM981 1667q0 73 41.5 120.5t114.5 47.5q55 0 84.5 -30.5t29.5 -86.5q0 -74 -41 -121t-114 -47q-57 0 -86 31.5t-29 85.5z" />
<glyph unicode="&#x2c6;" horiz-adv-x="714" d="M78 1274l436 293l350 -293l-112 -119l-117 109l-154 92q-149 -78 -180 -92l-149 -109z" />
<glyph unicode="&#x2dc;" horiz-adv-x="714" d="M121 1266q5 9 13.5 23.5t34 51.5t49.5 65.5t55 51.5t55 23q42 0 158.5 -39t158.5 -39q22 0 47.5 19.5t40.5 39.5l15 19l88 -58q-5 -8 -13.5 -22t-33 -49.5t-48 -62.5t-54 -49.5t-54.5 -22.5q-43 0 -159 38.5t-159 38.5q-21 0 -48.5 -21.5t-44.5 -42.5l-17 -22z" />
<glyph unicode="&#x2000;" horiz-adv-x="965" />
<glyph unicode="&#x2001;" horiz-adv-x="1931" />
<glyph unicode="&#x2002;" horiz-adv-x="965" />
<glyph unicode="&#x2003;" horiz-adv-x="1931" />
<glyph unicode="&#x2004;" horiz-adv-x="643" />
<glyph unicode="&#x2005;" horiz-adv-x="482" />
<glyph unicode="&#x2006;" horiz-adv-x="321" />
<glyph unicode="&#x2007;" horiz-adv-x="321" />
<glyph unicode="&#x2008;" horiz-adv-x="241" />
<glyph unicode="&#x2009;" horiz-adv-x="386" />
<glyph unicode="&#x200a;" horiz-adv-x="107" />
<glyph unicode="&#x2010;" horiz-adv-x="518" d="M35 422l22 194h455l-37 -194h-440z" />
<glyph unicode="&#x2011;" horiz-adv-x="518" d="M35 422l22 194h455l-37 -194h-440z" />
<glyph unicode="&#x2012;" horiz-adv-x="518" d="M35 422l22 194h455l-37 -194h-440z" />
<glyph unicode="&#x2013;" horiz-adv-x="946" d="M-20 422l20 194h1032l-37 -194h-1015z" />
<glyph unicode="&#x2014;" horiz-adv-x="1912" d="M-20 422l20 194h2060l-37 -194h-2043z" />
<glyph unicode="&#x2018;" horiz-adv-x="428" d="M150 1214q0 78 40.5 157t122 138t183.5 68l10 -59q-123 -54 -158 -148q58 0 92.5 -33.5t34.5 -87.5q0 -77 -56 -136.5t-132 -59.5q-69 0 -103 44.5t-34 116.5z" />
<glyph unicode="&#x2019;" horiz-adv-x="428" d="M135 1112q123 54 158 148q-58 0 -92.5 33t-34.5 87q0 77 56 137t132 60q69 0 103.5 -45t34.5 -117q0 -78 -40.5 -156.5t-122.5 -137.5t-184 -68z" />
<glyph unicode="&#x201a;" horiz-adv-x="432" d="M-35 -215q123 54 158 147q-58 0 -92.5 33.5t-34.5 87.5q0 77 56 137t132 60q69 0 103.5 -45t34.5 -117q0 -78 -40.5 -156.5t-122.5 -137.5t-184 -68z" />
<glyph unicode="&#x201c;" horiz-adv-x="837" d="M129 1214q0 78 40.5 157t122 138t183.5 68l10 -59q-56 -25 -96 -58.5t-61 -89.5q58 0 92.5 -33.5t34.5 -87.5q0 -77 -56.5 -136.5t-132.5 -59.5q-69 0 -103 44.5t-34 116.5zM539 1214q0 78 40.5 157t122 138t183.5 68l10 -59q-123 -54 -158 -148q58 0 92.5 -33.5 t34.5 -87.5q0 -77 -56 -136.5t-132 -59.5q-69 0 -103 44.5t-34 116.5z" />
<glyph unicode="&#x201d;" horiz-adv-x="839" d="M135 1112q123 54 158 148q-58 0 -92.5 33t-34.5 87q0 77 56 137t132 60q69 0 103.5 -45t34.5 -117q0 -78 -40.5 -156.5t-122.5 -137.5t-184 -68zM547 1112q123 54 158 148q-58 0 -92.5 33t-34.5 87q0 77 56 137t132 60q69 0 103 -45t34 -117q0 -58 -24.5 -118.5 t-67.5 -112.5t-110 -88.5t-144 -42.5z" />
<glyph unicode="&#x201e;" horiz-adv-x="847" d="M-31 -215q123 54 158 147q-58 0 -92.5 33.5t-34.5 87.5q0 77 56 137t132 60q69 0 103.5 -45t34.5 -117q0 -58 -24.5 -118.5t-67.5 -112.5t-110 -88.5t-144 -42.5zM381 -215q123 54 158 147q-58 0 -92.5 33.5t-34.5 87.5q0 77 56 137t132 60q69 0 103 -45t34 -117 q0 -58 -24.5 -118.5t-67.5 -112.5t-110 -88.5t-144 -42.5z" />
<glyph unicode="&#x2022;" horiz-adv-x="532" d="M82 477q0 100 58 175t145 75q68 0 107.5 -45.5t39.5 -118.5q0 -100 -58 -176t-145 -76q-67 0 -107 47t-40 119z" />
<glyph unicode="&#x2026;" horiz-adv-x="1255" d="M51 104q0 81 47 142t117 61q55 0 86 -36.5t31 -96.5q0 -81 -47 -143t-117 -62q-54 0 -85.5 37.5t-31.5 97.5zM457 104q0 81 47 142t117 61q54 0 85 -36.5t31 -96.5q0 -81 -47 -143t-117 -62q-54 0 -85 37.5t-31 97.5zM862 104q0 81 47 142t117 61q55 0 86 -36.5t31 -96.5 q0 -81 -47 -143t-117 -62q-54 0 -85.5 37.5t-31.5 97.5z" />
<glyph unicode="&#x202f;" horiz-adv-x="386" />
<glyph unicode="&#x2039;" horiz-adv-x="497" d="M25 496l381 475l124 -92l-272 -383l160 -383l-150 -93z" />
<glyph unicode="&#x203a;" horiz-adv-x="499" d="M-14 113l270 383l-160 383l150 92l246 -475l-383 -476z" />
<glyph unicode="&#x205f;" horiz-adv-x="482" />
<glyph unicode="&#x20ac;" horiz-adv-x="1302" d="M61 444l17 134l129 4q4 70 10 106l-135 -6l16 133l146 6q69 252 245.5 398.5t430.5 146.5q43 0 81.5 -2t77.5 -7.5t60.5 -9t65 -12t57.5 -10.5l38 -59l-96 -338l-121 6l7 242q-105 22 -164 22q-106 0 -186.5 -98.5t-125.5 -261.5l330 14l-16 -131l-340 -16 q-4 -23 -13 -107l349 16l-17 -131l-336 -16q2 -148 55 -242t154 -94q81 0 193 23l82 239l121 -6l-37 -358q-258 -66 -412 -66q-241 0 -373.5 130t-146.5 358z" />
<glyph unicode="&#x2122;" horiz-adv-x="1093" d="M125 1315l22 121l15 14q62 -6 74 -6h225l74 6l12 -14l-10 -121l-54 -2q0 4 2 23.5t2 25.5q-1 1 -4 10q-12 6 -47 6h-26q-13 -39 -13 -43l-32 -227q-7 -43 -7 -82l33 -4l-14 -61q-43 4 -131 4l-74 -4l8 57l39 8q0 2 3 13.5t6.5 26t4.5 21.5l31 201q6 47 6 90h-24 q-32 0 -53 -6q-3 -9 -3 -10q-12 -36 -12 -49zM498 961l6 55l43 6q3 6 12 33l59 295q3 9 3 32l-37 9l10 55q20 -2 59 -6h123l12 -10q7 -70 11 -103l28 -192l95 206l34 89l13 14h92l80 2l-6 -55l-41 -9l-4 -32l-23 -295q4 -12 4 -33l37 -4l-12 -57q-41 4 -121 4l-74 -4l6 55 l43 6l11 53l24 215l-156 -325h-79l-54 325l-45 -215l-6 -53l41 -4l-12 -57q-25 4 -109 4z" />
<glyph unicode="&#x25fc;" horiz-adv-x="1044" d="M0 0v1044h1044v-1044h-1044z" />
</font>
</defs>
</svg>
